<svg width="85" height="86" viewBox="0 0 85 86" fill="none" xmlns="http://www.w3.org/2000/svg">
<rect width="85" height="86" fill="white"/>
<rect x="0.5" y="0.5" width="84" height="85" stroke="#131326" stroke-opacity="0.3"/>
<path opacity="0.1" d="M40.9716 28.7287V30.0327H38.6172V32.7855H40.8991V34.1076H29.0004V32.7855H31.3004V30.0327H28.9279V28.7287H40.9716ZM27.5696 36.6612V35.2848H42.3661V36.6612H35.81V38.0558H40.5007V41.7685H31.0469V43.0724H40.9535V44.3764H29.3626V40.555H38.7983V39.3416H29.3445V38.0558H34.0895V36.6612H27.5696ZM33.0028 32.7855H36.8967V30.0327H33.0028V32.7855ZM58.6477 31.0107V32.4233H56.3477V34.6328H58.6477V36.0636H56.3477V39.1967H54.6271V28.3121H56.3477V31.0107H58.6477ZM43.489 36.299C46.0517 35.3935 47.5186 33.2202 47.5277 30.8114V29.2177H49.2301V30.9563C49.2301 33.0843 50.7243 35.0765 53.1783 35.8643L52.2365 37.1864C50.4707 36.5707 49.1396 35.312 48.4242 33.7273C47.7179 35.5384 46.3233 36.96 44.4308 37.6573L43.489 36.299ZM45.1009 43.1268C48.1706 42.665 50.4707 40.9716 50.4798 38.8707V38.3817H52.1822V38.8707C52.1641 40.9716 54.5004 42.665 57.5792 43.1268L56.891 44.467C54.4007 44.0504 52.318 42.8913 51.34 41.1799C50.3439 42.8913 48.2612 44.0504 45.7891 44.467L45.1009 43.1268ZM21.919 62.0014C21.9371 58.5875 22.9061 55.7532 24.5994 53.3263H26.3743C25.1246 55.1193 23.9293 58.7686 23.9293 62.0014C23.9293 65.2433 25.1246 68.8926 26.3743 70.6946H24.5994C22.9061 68.2587 21.9371 65.4244 21.919 62.0014ZM41.0984 52.3303V64.2109H39.3778V58.1076H36.2809V56.7131H39.3778V52.3303H41.0984ZM27.5877 60.8242C30.0779 59.9821 31.6355 57.845 31.6264 55.6083V54.9744H28.1129V53.5618H36.8604V54.9744H33.3832V55.6083C33.3741 57.6277 34.8411 59.6651 37.2951 60.4801L36.4077 61.8565C34.5875 61.2227 33.2383 59.9187 32.532 58.3068C31.8256 60.0998 30.4039 61.5305 28.4751 62.2187L27.5877 60.8242ZM30.5579 68.1953V63.1424H32.2784V66.8008H41.533V68.1953H30.5579ZM57.054 52.3303V64.2109H55.3335V52.3303H57.054ZM43.6882 60.5526C46.2328 59.6108 47.736 57.2745 47.745 54.8295V53.2177H49.5018V54.8295C49.4927 57.2021 50.9959 59.3754 53.5043 60.2447L52.6168 61.6211C50.7424 60.9238 49.3569 59.5474 48.6325 57.7907C47.9171 59.6742 46.5135 61.1774 44.6119 61.9109L43.6882 60.5526ZM46.4411 68.1953V63.0881H48.1797V66.8008H57.543V68.1953H46.4411ZM64.081 62.0014C64.0629 65.4244 63.0939 68.2587 61.4006 70.6946H59.6257C60.8754 68.8926 62.0707 65.2433 62.0707 62.0014C62.0707 58.7686 60.8754 55.1193 59.6257 53.3263H61.4006C63.0939 55.7532 64.0629 58.5875 64.081 62.0014Z" fill="#1E1E23"/>
</svg>
