<svg width="84" height="84" viewBox="0 0 84 84" fill="none" xmlns="http://www.w3.org/2000/svg">
<g filter="url(#filter0_bd_846_11178)">
<rect x="12" y="12" width="60" height="60" rx="30" fill="#F9F9F9" fill-opacity="0.4" shape-rendering="crispEdges"/>
<rect x="12.5" y="12.5" width="59" height="59" rx="29.5" stroke="#121212" shape-rendering="crispEdges"/>
<path d="M46.2684 25.9999H46.9273C48.9463 25.9999 50.7206 27.3383 51.2753 29.2796L51.5711 30.3151C51.912 31.5082 53.0025 32.3307 54.2433 32.3307V32.3307C58.0804 32.3307 61.191 35.4413 61.191 39.2784V50.1171C61.191 54.2795 57.8167 57.6538 53.6543 57.6538H32.5518C28.3894 57.6538 25.0151 54.2795 25.0151 50.1172V44.9922M39.9377 25.9999H39.2788C37.2598 25.9999 35.4855 27.3383 34.9308 29.2796L34.6838 30.1442C34.314 31.4384 33.1311 32.3307 31.7851 32.3307H29.5371" stroke="#121212" stroke-width="3.01465" stroke-linecap="round"/>
<path d="M37.68 43.183C37.68 40.1861 40.1094 37.7567 43.1063 37.7567C46.1032 37.7567 48.5327 40.1861 48.5327 43.183C48.5327 46.1799 46.1032 48.6094 43.1063 48.6094C42.357 48.6094 41.6431 48.4575 40.9938 48.1828" stroke="#00FF20" stroke-width="3.01465" stroke-linecap="round"/>
<path d="M22.001 36.5511H28.0303" stroke="#00FF20" stroke-width="2.26099" stroke-linecap="round"/>
<path d="M25.0151 39.5659V33.5366" stroke="#00FF20" stroke-width="2.26099" stroke-linecap="round"/>
</g>
<defs>
<filter id="filter0_bd_846_11178" x="0" y="0" width="84" height="84" filterUnits="userSpaceOnUse" color-interpolation-filters="sRGB">
<feFlood flood-opacity="0" result="BackgroundImageFix"/>
<feGaussianBlur in="BackgroundImageFix" stdDeviation="6"/>
<feComposite in2="SourceAlpha" operator="in" result="effect1_backgroundBlur_846_11178"/>
<feColorMatrix in="SourceAlpha" type="matrix" values="0 0 0 0 0 0 0 0 0 0 0 0 0 0 0 0 0 0 127 0" result="hardAlpha"/>
<feOffset/>
<feGaussianBlur stdDeviation="6"/>
<feComposite in2="hardAlpha" operator="out"/>
<feColorMatrix type="matrix" values="0 0 0 0 0.00784314 0 0 0 0 0.172549 0 0 0 0 0.0156863 0 0 0 0.09 0"/>
<feBlend mode="normal" in2="effect1_backgroundBlur_846_11178" result="effect2_dropShadow_846_11178"/>
<feBlend mode="normal" in="SourceGraphic" in2="effect2_dropShadow_846_11178" result="shape"/>
</filter>
</defs>
</svg>
