<svg width="17" height="17" viewBox="0 0 17 17" fill="none" xmlns="http://www.w3.org/2000/svg">
<path d="M3.25908 5.50002C3.76387 4.70144 4.50062 4.04592 5.38786 3.60592C6.27511 3.16592 7.27829 2.95859 8.28649 3.00685C9.2947 3.05511 10.2687 3.35708 11.1007 3.87938C11.9327 4.40167 12.5904 5.12394 13.001 5.96634M2 3.94711L2.49913 5.92183C2.58414 6.25817 2.95157 6.46787 3.31981 6.39023L5.48186 5.93434M12.7409 10.5C12.2361 11.2986 11.4994 11.9541 10.6121 12.3941C9.72489 12.8341 8.72171 13.0414 7.71351 12.9931C6.7053 12.9449 5.73135 12.6429 4.89932 12.1206C4.06729 11.5983 3.4096 10.8761 2.99897 10.0337M14 12.0529L13.5009 10.0782C13.4159 9.74183 13.0484 9.53213 12.6802 9.60977L10.5181 10.0657" stroke="#121212" stroke-width="1.5" stroke-linecap="round"/>
</svg>
