<svg width="32" height="32" viewBox="0 0 32 32" fill="none" xmlns="http://www.w3.org/2000/svg">
<path d="M14.6665 27.3332V24.6665H11.9998V21.9998H14.6665V19.1998C12.9109 18.8887 11.4721 18.0498 10.3498 16.6832C9.22761 15.3165 8.6665 13.7332 8.6665 11.9332C8.6665 9.91095 9.38317 8.19428 10.8165 6.78317C12.2498 5.37206 13.9776 4.6665 15.9998 4.6665C18.0221 4.6665 19.7498 5.37206 21.1832 6.78317C22.6165 8.19428 23.3332 9.91095 23.3332 11.9332C23.3332 13.7332 22.7721 15.3165 21.6498 16.6832C20.5276 18.0498 19.0887 18.8887 17.3332 19.1998V21.9998H19.9998V24.6665H17.3332V27.3332H14.6665ZM15.9998 16.6665C17.2887 16.6665 18.3887 16.2109 19.2998 15.2998C20.2109 14.3887 20.6665 13.2887 20.6665 11.9998C20.6665 10.7109 20.2109 9.61095 19.2998 8.69984C18.3887 7.78873 17.2887 7.33317 15.9998 7.33317C14.7109 7.33317 13.6109 7.78873 12.6998 8.69984C11.7887 9.61095 11.3332 10.7109 11.3332 11.9998C11.3332 13.2887 11.7887 14.3887 12.6998 15.2998C13.6109 16.2109 14.7109 16.6665 15.9998 16.6665Z" fill="white" fill-opacity="0.4"/>
</svg>
