<svg width="85" height="86" viewBox="0 0 85 86" fill="none" xmlns="http://www.w3.org/2000/svg">
<rect width="85" height="86" fill="white"/>
<rect x="0.5" y="0.5" width="84" height="85" stroke="#131326" stroke-opacity="0.3"/>
<path opacity="0.1" d="M21.419 28.3121V34.5966H24.027V36.0455H21.419V44.5394H19.6985V28.3121H21.419ZM9.39346 40.6818V29.6705H11.0959V33.8359H15.3881V29.6705H17.0906V40.6818H9.39346ZM11.0959 39.2692H15.3881V35.1942H11.0959V39.2692ZM33.0462 30.6122C33.0462 33.2564 35.8624 35.7557 38.9865 36.3171L38.1896 37.7479C35.5907 37.1864 33.2092 35.484 32.1587 33.2021C31.0902 35.475 28.7086 37.1683 26.1097 37.7479L25.3491 36.3171C28.4279 35.7376 31.226 33.2564 31.2351 30.6122V29.3807H33.0462V30.6122ZM24.8057 42.4023V40.9716H39.6566V42.4023H24.8057ZM54.0004 36.951V38.3274H42.6992V29.6523H53.8374V31.0469H44.4379V33.2383H53.4933V34.5966H44.4379V36.951H54.0004ZM40.8338 42.4929V41.0803H55.6847V42.4929H40.8338ZM76.4396 31.0107V32.4233H74.1396V34.6328H76.4396V36.0636H74.1396V39.1967H72.419V28.3121H74.1396V31.0107H76.4396ZM61.2809 36.299C63.8436 35.3935 65.3105 33.2202 65.3196 30.8114V29.2177H67.022V30.9563C67.022 33.0843 68.5162 35.0765 70.9702 35.8643L70.0284 37.1864C68.2626 36.5707 66.9315 35.312 66.2161 33.7273C65.5098 35.5384 64.1152 36.96 62.2227 37.6573L61.2809 36.299ZM62.8928 43.1268C65.9625 42.665 68.2626 40.9716 68.2717 38.8707V38.3817H69.9741V38.8707C69.956 40.9716 72.2923 42.665 75.3711 43.1268L74.6829 44.467C72.1927 44.0504 70.1099 42.8913 69.1319 41.1799C68.1358 42.8913 66.0531 44.0504 63.581 44.467L62.8928 43.1268ZM13.405 62.0014C13.4231 58.5875 14.392 55.7532 16.0854 53.3263H17.8603C16.6106 55.1193 15.4153 58.7686 15.4153 62.0014C15.4153 65.2433 16.6106 68.8926 17.8603 70.6946H16.0854C14.392 68.2587 13.4231 65.4244 13.405 62.0014ZM24.6518 54.902C24.6428 57.03 26.1459 59.0131 28.5637 59.81L27.6401 61.1683C25.8652 60.5435 24.5341 59.2757 23.8278 57.6729C23.1214 59.4931 21.745 60.9238 19.8524 61.6211L18.9288 60.2447C21.4643 59.3482 22.9313 57.1839 22.9494 54.7571V53.1634H24.6518V54.902ZM21.1202 65.4968C21.1202 63.5952 23.1939 62.4814 26.5716 62.4904C29.9039 62.4814 31.9505 63.5952 31.9505 65.4968C31.9505 67.4165 29.9039 68.5123 26.5716 68.5032C23.1939 68.5123 21.1202 67.4165 21.1202 65.4968ZM22.8407 65.4968C22.8317 66.5653 24.2262 67.1449 26.5716 67.163C28.8988 67.1449 30.2752 66.5653 30.2662 65.4968C30.2752 64.4645 28.8988 63.8487 26.5716 63.8487C24.2262 63.8487 22.8317 64.4645 22.8407 65.4968ZM30.085 62.1101V52.3121H31.8056V56.3871H34.16V57.8359H31.8056V62.1101H30.085ZM47.8336 52.3303V57.1115H50.188V58.5604H47.8336V64.2472H46.1131V52.3303H47.8336ZM35.7175 61.5668V53.4893H37.4018V56.0792H41.6578V53.4893H43.3603V61.5668H35.7175ZM37.4018 60.1903H41.6578V57.4375H37.4018V60.1903ZM37.5467 68.1953V63.07H39.2672V66.8008H48.5218V68.1953H37.5467ZM64.568 52.3303V64.2109H62.8475V52.3303H64.568ZM51.2022 60.5526C53.7468 59.6108 55.25 57.2745 55.2591 54.8295V53.2177H57.0158V54.8295C57.0067 57.2021 58.5099 59.3754 61.0183 60.2447L60.1309 61.6211C58.2564 60.9238 56.8709 59.5474 56.1465 57.7907C55.4311 59.6742 54.0275 61.1774 52.1259 61.9109L51.2022 60.5526ZM53.9551 68.1953V63.0881H55.6937V66.8008H65.057V68.1953H53.9551ZM71.595 62.0014C71.5769 65.4244 70.608 68.2587 68.9146 70.6946H67.1397C68.3894 68.8926 69.5847 65.2433 69.5847 62.0014C69.5847 58.7686 68.3894 55.1193 67.1397 53.3263H68.9146C70.608 55.7532 71.5769 58.5875 71.595 62.0014Z" fill="#1E1E23"/>
</svg>
