<svg width="278" height="44" viewBox="0 0 278 44" fill="none" xmlns="http://www.w3.org/2000/svg">
<rect width="278" height="44" rx="8" fill="black"/>
<path d="M28.2053 16.3846C29.0894 16.3846 30.1975 15.8048 30.8574 15.0318C31.4551 14.3312 31.8909 13.3528 31.8909 12.3744C31.8909 12.2416 31.8784 12.1087 31.8535 12C30.8699 12.0362 29.687 12.6402 28.9773 13.4495C28.417 14.0655 27.9065 15.0318 27.9065 16.0223C27.9065 16.1672 27.9314 16.3121 27.9438 16.3605C28.0061 16.3725 28.1057 16.3846 28.2053 16.3846ZM25.0925 31C26.3003 31 26.8357 30.2149 28.3423 30.2149C29.8738 30.2149 30.21 30.9758 31.5547 30.9758C32.8745 30.9758 33.7585 29.7921 34.5928 28.6325C35.5266 27.3039 35.9126 25.9994 35.9375 25.939C35.8503 25.9148 33.3228 24.9123 33.3228 22.0979C33.3228 19.658 35.3149 18.5588 35.427 18.4743C34.1072 16.6383 32.1025 16.59 31.5547 16.59C30.073 16.59 28.8652 17.4596 28.1057 17.4596C27.2839 17.4596 26.2007 16.6383 24.9182 16.6383C22.4778 16.6383 20 18.595 20 22.2912C20 24.5861 20.9214 27.014 22.0544 28.5842C23.0256 29.9129 23.8723 31 25.0925 31Z" fill="white"/>
<path d="M91.1865 28.5H89.4424L94.3594 15.0664H96.1221L101.039 28.5H99.2764L97.9312 24.7148H92.5317L91.1865 28.5ZM93.042 23.249H97.4209L95.2871 17.2373H95.1758L93.042 23.249ZM102.653 32.2852V18.4248H104.193V20.0205H104.379C104.722 19.4824 105.334 18.2949 107.292 18.2949C109.825 18.2949 111.578 20.2988 111.578 23.4902C111.578 26.6909 109.825 28.7134 107.311 28.7041C105.39 28.7134 104.722 27.5166 104.379 26.96H104.249V32.2852H102.653ZM104.212 23.4531C104.221 25.7168 105.232 27.2754 107.088 27.2754C108.999 27.2754 109.982 25.5962 109.982 23.4531C109.982 21.3472 109.027 19.7236 107.088 19.7236C105.205 19.7236 104.221 21.2173 104.212 23.4531ZM113.656 32.2852V18.4248H115.196V20.0205H115.382C115.725 19.4824 116.337 18.2949 118.295 18.2949C120.828 18.2949 122.581 20.2988 122.581 23.4902C122.581 26.6909 120.828 28.7134 118.313 28.7041C116.393 28.7134 115.725 27.5166 115.382 26.96H115.252V32.2852H113.656ZM115.215 23.4531C115.224 25.7168 116.235 27.2754 118.091 27.2754C120.002 27.2754 120.985 25.5962 120.985 23.4531C120.985 21.3472 120.03 19.7236 118.091 19.7236C116.208 19.7236 115.224 21.2173 115.215 23.4531ZM126.255 15.0664V28.5H124.659V15.0664H126.255ZM133.027 28.7041C130.114 28.7134 128.314 26.6353 128.314 23.5459C128.314 20.4473 130.142 18.2949 132.879 18.2949C134.994 18.2949 137.23 19.5938 137.221 23.3232V23.9912H129.91C129.994 26.125 131.237 27.2939 133.027 27.2939C134.233 27.2939 134.994 26.7651 135.365 26.1436H137.072C136.599 27.6743 135.105 28.7134 133.027 28.7041ZM129.919 22.6367H135.606C135.597 20.9575 134.54 19.7051 132.879 19.7051C131.135 19.7051 130.031 21.0781 129.919 22.6367ZM153.79 26.7373V27.9619H138.687V26.7373H145.478V23.6201H140.579V18.5361H150.45V15.9385H140.542V14.7324H151.879V19.7236H142.026V22.4141H152.269V23.6201H146.906V26.7373H153.79ZM165.739 17.9424C165.73 20.9575 167.78 23.9819 170.211 25.0859L169.32 26.2363C167.437 25.3271 165.813 23.3696 165.025 21.0225C164.264 23.5088 162.641 25.5962 160.711 26.5703L159.783 25.3457C162.242 24.2231 164.273 21.0688 164.292 17.9424V14.9365H165.739V17.9424ZM172.011 30.04V13.5078H173.477V30.04H172.011ZM181.882 16.5693C181.891 18.7681 183.505 20.772 185.945 21.6162L185.203 22.748C183.32 22.0801 181.882 20.7349 181.177 19.0278C180.472 20.9019 178.959 22.3584 177.021 23.0635L176.241 21.9316C178.709 21.0596 180.435 18.9351 180.453 16.5693V15.8643H176.687V14.6768H185.593V15.8643H181.882V16.5693ZM178.394 25.5127V24.3252H189.192V30.0029H187.745V25.5127H178.394ZM187.745 23.4531V13.5078H189.192V17.8682H191.679V19.1113H189.192V23.4531H187.745ZM205.483 13.5078V20.3174H208.248V21.5234H205.483V30.0029H204.036V13.5078H205.483ZM192.625 17.3672V16.1611H196.874V13.7119H198.321V16.1611H202.44V17.3672H192.625ZM193.571 22.5254C193.562 20.2988 195.269 18.7402 197.616 18.7402C199.945 18.7402 201.643 20.2988 201.661 22.5254C201.643 24.7612 199.945 26.3105 197.616 26.3105C195.269 26.3105 193.562 24.7612 193.571 22.5254ZM194.963 22.5254C194.954 24.0283 196.076 25.0859 197.616 25.0674C199.138 25.0859 200.251 24.0283 200.27 22.5254C200.251 21.0317 199.138 19.9556 197.616 19.9648C196.076 19.9556 194.954 21.0317 194.963 22.5254ZM222.776 13.5078V30.0029H221.311V13.5078H222.776ZM209.343 25.7168C213.805 23.6016 216.087 20.438 216.412 16.4951H210.104V15.3076H217.896C217.878 20.0483 215.67 24.251 210.141 26.9043L209.343 25.7168Z" fill="white"/>
</svg>
