<svg width="24" height="24" viewBox="0 0 24 24" fill="none" xmlns="http://www.w3.org/2000/svg">
<path d="M1 10.3759C1 9.15172 1.56058 7.99494 2.52142 7.23638L9.20892 1.95677C10.6622 0.809482 12.7128 0.80948 14.1661 1.95677L20.8536 7.23638C21.8144 7.99494 22.375 9.15172 22.375 10.3759V18.5C22.375 20.7091 20.5841 22.5 18.375 22.5H16.0625C15.5102 22.5 15.0625 22.0523 15.0625 21.5V17.75C15.0625 16.6454 14.1671 15.75 13.0625 15.75H10.3125C9.20793 15.75 8.3125 16.6454 8.3125 17.75V21.5C8.3125 22.0523 7.86478 22.5 7.3125 22.5H5C2.79086 22.5 1 20.7091 1 18.5L1 10.3759Z" fill="#121212" stroke="#121212" stroke-width="2"/>
</svg>
