<svg width="393" height="852" viewBox="0 0 393 852" fill="none" xmlns="http://www.w3.org/2000/svg">
<g clip-path="url(#clip0_846_11159)">
<rect width="393" height="852" fill="white"/>
<path fill-rule="evenodd" clip-rule="evenodd" d="M606 -382H-203V158.648C-139.539 125.621 -62.4073 128.162 26.1653 197.747C36.3238 205.727 51.4027 199.188 53.5453 186.449C56.7546 167.368 61.5169 148.291 67.9075 129.372C132.847 -62.8791 341.342 -166.085 533.593 -101.146C556.656 -93.3551 581.046 -81.0905 606 -65.2056V-382ZM606 651.642C557.006 647.274 514.721 633.033 474.241 619.4C443.532 609.058 413.362 634.662 403.138 665.411C403.051 665.671 402.964 665.932 402.876 666.193C346.846 832.067 -10.8628 854.458 -176.737 798.429C-185.72 795.394 -194.478 791.996 -203 788.257V1371.86H606V651.642Z" fill="#00FF20"/>
</g>
<defs>
<clipPath id="clip0_846_11159">
<rect width="393" height="852" fill="white"/>
</clipPath>
</defs>
</svg>
