<svg width="29" height="29" viewBox="0 0 29 29" fill="none" xmlns="http://www.w3.org/2000/svg">
<path fill-rule="evenodd" clip-rule="evenodd" d="M14.8612 3.62972C16.0319 2.45726 17.9307 2.45654 19.1023 3.62811L21.8303 6.35619C22.9919 7.51777 23.004 9.39824 21.8574 10.5746L20.0408 12.4385L20.3249 12.7226C20.7154 13.1131 20.7157 13.7465 20.3254 14.1373C19.9352 14.5281 19.3023 14.5284 18.9118 14.1379L18.6447 13.8708L12.1122 20.5732C11.3597 21.3454 10.3275 21.7808 9.24969 21.7807L6.24899 21.7806C4.82761 21.7805 3.69248 20.5957 3.75226 19.1745L3.88079 16.1186C3.92292 15.117 4.33922 14.1677 5.04731 13.4585L14.8612 3.62972ZM20.4262 9.17763L18.6265 11.0242L14.4622 6.8599L16.2754 5.04393C16.6657 4.65311 17.2986 4.65287 17.6891 5.0434L20.4172 7.77148C20.8044 8.15867 20.8084 8.78549 20.4262 9.17763ZM6.46153 14.8727L13.0491 8.27518L17.2304 12.4565L10.681 19.1762C10.3048 19.5623 9.78868 19.78 9.24978 19.78L6.24908 19.7798C5.9648 19.7798 5.73777 19.5428 5.74973 19.2586L5.87827 16.2028C5.89933 15.702 6.10748 15.2273 6.46153 14.8727ZM23.1871 25.9408C23.7391 25.9408 24.1867 25.4929 24.1867 24.9404C24.1867 24.3879 23.7391 23.94 23.1871 23.94H15.4605C14.9084 23.94 14.4609 24.3879 14.4609 24.9404C14.4609 25.4929 14.9084 25.9408 15.4605 25.9408H23.1871Z" fill="#121212"/>
</svg>
