<svg width="27" height="26" viewBox="0 0 27 26" fill="none" xmlns="http://www.w3.org/2000/svg">
<path d="M21.1189 21.6985V20.2312C21.1189 19.3652 20.5725 18.5933 19.7557 18.3055C15.868 16.9354 11.6128 17.0384 7.79587 18.5951L7.32812 18.7859C10.5 18.5 11.5 21 10.0218 23.4788C12.4757 23.1329 14.9659 23.1329 17.4198 23.4788L18.8397 23.679C20.0434 23.8486 21.1189 22.9141 21.1189 21.6985Z" fill="#121212"/>
<ellipse cx="4.22746" cy="4.17148" rx="4.22746" ry="4.17148" transform="matrix(-1 0 0 1 17.9492 5.75)" fill="#121212"/>
<path d="M10.0218 23.4788V23.4788C12.4757 23.1329 14.9659 23.1329 17.4198 23.4788L18.8397 23.679C20.0434 23.8486 21.1189 22.9141 21.1189 21.6985V20.2312C21.1189 19.3652 20.5725 18.5933 19.7557 18.3055V18.3055C15.868 16.9354 11.6128 17.0384 7.79587 18.5951L7.32812 18.7859" stroke="#121212" stroke-width="2" stroke-linecap="round"/>
<path d="M19.2422 4.36109L20.087 3.24072L21.4169 1.47701C21.5325 1.32376 21.7766 1.40549 21.7766 1.59743V7.31855C21.7766 7.42901 21.8661 7.51855 21.9766 7.51855H24.9974C25.41 7.51855 25.645 7.99013 25.3966 8.31958L22.6214 12" stroke="#121212" stroke-width="2" stroke-linecap="round"/>
<path d="M3.35737 16L2.57158 17.0206L1.61981 18.2568C1.36667 18.5856 1.60105 19.0618 2.01599 19.0618H4.72896C4.83942 19.0618 4.92896 19.1514 4.92896 19.2618V24.4806C4.92896 24.6637 5.15452 24.7506 5.2773 24.6148L8.09394 21.5" stroke="#121212" stroke-width="2" stroke-linecap="round"/>
</svg>
