<svg width="114" height="114" viewBox="0 0 114 114" fill="none" xmlns="http://www.w3.org/2000/svg">
<rect width="114" height="114" fill="white"/>
<rect x="0.5" y="0.5" width="113" height="113" stroke="#131326" stroke-opacity="0.3"/>
<g clip-path="url(#clip0_1014_9590)">
<path d="M41.7249 17.515C25.4571 14.2369 33.4102 26.7701 27.1086 27.2005C24.1649 27.4015 22.391 37.0466 22.3975 37.5425C22.451 41.11 26.0972 42.3345 26.2282 43.5579C26.4369 45.5011 24.3626 47.0849 25.716 48.0145C27.0693 48.9441 34.5855 50.0276 34.9241 50.3663C35.2628 50.7049 34.5123 54.5345 33.5478 55.9185C32.5833 57.3024 24.9186 68.0857 27.1076 72.0825C29.2966 76.0793 29.2736 78.8144 29.2736 78.8144C30.284 79.259 30.2632 80.2956 29.2736 80.2956C28.284 80.2956 25.9464 80.1066 25.9464 79.555C25.9464 79.0034 26.1518 77.2786 24.2577 76.9673C22.3636 76.656 22.2806 76.3294 22.3221 74.9684C22.3636 73.6074 22.8028 71.4665 22.3156 71.2196C21.8284 70.9727 19.8109 69.7788 19.8109 67.1835C19.8109 64.5882 20.0578 50.0058 20.3046 49.7611C20.5515 49.5164 21.8699 48.9408 22.0338 48.364C22.1976 47.7873 22.3385 46.66 21.6176 46.2635C20.8967 45.867 20.4947 45.37 20.5712 44.8741C20.6476 44.3782 19.6274 43.8189 18.9272 43.0117C18.2271 42.2045 13.1991 37.1089 13.3859 29.6014C13.5727 22.0939 18.8715 14.7689 25.0562 12.3538C29.953 10.4412 38.2338 11.1916 43.5523 14.2162C45.4868 15.3161 47.4923 18.0021 47.3776 19.2954C47.2629 20.5887 45.2104 18.2184 41.7249 17.5161V17.515Z" fill="#CCCCCC"/>
<path d="M36.7837 41.0907C38.787 41.1584 42.0366 40.6178 43.4588 40.7182C44.881 40.8187 48.537 41.3616 48.6047 42.1732C48.6724 42.9848 45.9646 42.5795 42.9847 43.1891C40.0049 43.7986 34.5772 41.7865 36.7837 41.0896" fill="#CCCCCC"/>
<path d="M35.5832 39.6542C35.2566 39.4685 33.4531 38.4592 33.5624 35.9251L33.771 35.8191L38.8098 36.4155C38.7509 36.9748 38.9245 37.7219 38.6427 38.374C38.4494 38.8219 38.0332 39.1223 37.6039 39.3538C37.1845 39.58 36.173 39.8126 35.5832 39.6531" fill="#00FF00"/>
<path d="M46.3618 40.352C45.9915 40.1051 45.1854 39.0008 45.6037 37.2193L45.7927 37.1592C46.1335 37.3755 47.8637 37.7709 47.8637 37.7709C48.0265 38.4044 47.9533 39.323 47.6267 39.9184C47.3787 40.3706 47.1417 40.5923 46.3629 40.352" fill="#00FF00"/>
<path d="M33.5498 35.6227C35.8841 36.2213 38.3319 36.3786 40.7241 36.0826" stroke="#00FF00" stroke-width="0.436925" stroke-miterlimit="10"/>
<path d="M45.7061 37.049C46.9939 37.7448 48.4947 37.8977 49.9508 38.0376" stroke="#00FF00" stroke-width="0.436925" stroke-miterlimit="10"/>
<path d="M35.618 50.0014C40.9583 50.4339 48.457 49.1341 49.6181 43.7949C50.3401 40.4753 47.8857 41.6299 49.6181 39.1766C51.3505 36.7232 53.226 30.0842 51.0611 23.5893C48.8961 17.0933 43.8442 10.0217 30.7102 10.4542C17.5762 10.8879 10.7755 24.7821 13.1021 34.2688C14.9787 41.9183 19.7412 45.0936 19.7412 45.0936C19.7412 45.0936 19.5042 45.7643 19.9444 46.2657C20.2863 46.6545 21.3349 47.2837 21.312 47.8342C21.2846 48.4787 19.5959 48.5574 19.5588 49.4039C19.3534 54.0145 19.0126 60.9922 18.7319 63.4237C18.2994 67.1758 18.5877 70.7848 21.6189 72.0836V76.2409C21.6189 76.7914 21.9815 77.2742 22.508 77.4304C23.182 77.6303 24.1279 77.8564 24.9384 77.8564L25.0313 79.2568C25.064 79.7429 25.3775 80.1634 25.833 80.336C27.0619 80.7991 29.7424 81.6085 33.453 81.6085C38.6491 81.6085 41.8245 80.0214 41.9687 78.5774C42.1129 77.1333 41.9687 71.2163 39.8037 69.7733C39.8037 69.7733 44.5706 66.5882 41.8245 59.5264C40.8141 56.9288 35.618 50.0003 35.618 50.0003V50.0014Z" stroke="#808080" stroke-width="0.871665" stroke-linecap="round" stroke-linejoin="round"/>
<path d="M22.9287 46.2669C24.2919 47.1189 29.2892 49.2893 35.6181 49.7645" stroke="#808080" stroke-width="0.348448" stroke-linecap="round" stroke-linejoin="round"/>
<path d="M21.6211 72.0839C22.4229 72.5001 24.0231 72.9982 24.4393 73.0298C24.8554 73.0615 24.9406 77.8568 24.9406 77.8568" stroke="#808080" stroke-width="0.871665" stroke-linecap="round" stroke-linejoin="round"/>
<path d="M24.0199 51.201C24.0887 49.4796 25.8342 48.1764 29.3296 52.8144C32.825 57.4523 38.0004 64.3077 36.5214 69.1477C35.0424 73.9867 29.3296 74.121 26.1029 70.2903C22.8762 66.4595 23.7501 57.9231 24.0188 51.2021L24.0199 51.201Z" fill="white" stroke="#808080" stroke-width="0.348448" stroke-linecap="round" stroke-linejoin="round"/>
<path d="M41.2335 34.8546C41.784 37.9666 40.0068 40.2145 37.4432 40.1042C34.5606 39.9797 33.193 37.8115 33.6529 34.8546C34.0985 31.9894 35.3492 29.6049 37.4432 29.6049C39.5371 29.6049 40.7278 31.9993 41.2335 34.8546Z" stroke="#808080" stroke-width="0.348448" stroke-linecap="round" stroke-linejoin="round"/>
<path d="M50.5521 36.803C49.7067 39.0247 49.0458 40.7932 47.3778 40.7167C45.5002 40.6293 44.9387 38.2787 46.0638 35.8527C47.1059 33.6047 48.5848 31.9039 49.7984 32.2666C51.5308 32.7844 51.379 34.6293 50.5521 36.803Z" stroke="#808080" stroke-width="0.251232" stroke-linecap="round" stroke-linejoin="round"/>
<path d="M37.9536 29.6562C38.7783 30.3084 40.2824 31.2106 40.7717 35.3472C41.26 39.4838 38.55 39.7459 37.4424 40.1031" stroke="#808080" stroke-width="0.251232" stroke-linecap="round" stroke-linejoin="round"/>
<path d="M49.7975 32.2656C50.3579 32.9406 51.1476 33.3535 50.6211 35.2334C50.0946 37.1133 49.1345 40.257 47.377 40.7157" stroke="#808080" stroke-width="0.251232" stroke-linecap="round" stroke-linejoin="round"/>
<path d="M27.1098 27.2005C25.0126 26.1945 22.9153 25.1884 20.8192 24.1824C20.4347 23.9978 20.0196 23.8089 19.598 23.8755C19.1665 23.9443 18.8235 24.2687 18.5439 24.6052C17.1621 26.2655 16.6662 28.4883 16.4751 30.6402C16.2992 32.6216 16.4751 34.9046 18.0305 36.1443C19.2987 37.1558 21.0868 37.1383 22.698 36.9505" fill="white"/>
<path d="M27.1098 27.2005C25.0126 26.1945 22.9153 25.1884 20.8192 24.1824C20.4347 23.9978 20.0196 23.8089 19.598 23.8755C19.1665 23.9443 18.8235 24.2687 18.5439 24.6052C17.1621 26.2655 16.6662 28.4883 16.4751 30.6402C16.2992 32.6216 16.4751 34.9046 18.0305 36.1443C19.2987 37.1558 21.0868 37.1383 22.698 36.9505" stroke="#808080" stroke-width="0.871665" stroke-linecap="round" stroke-linejoin="round"/>
<path d="M52.2269 30.0124C52.8866 29.8889 53.2449 29.7644 53.9057 29.641C53.9964 29.6235 54.0925 29.6071 54.1799 29.6366C54.3765 29.7021 54.4311 29.949 54.4552 30.1554C54.6147 31.5634 54.7709 33.0184 54.3634 34.3761C53.956 35.7339 52.3852 36.8306 50.9707 36.9245" stroke="#808080" stroke-width="0.871665" stroke-linecap="round" stroke-linejoin="round"/>
<path d="M89.0323 79.9346C88.331 79.4267 85.7696 75.9914 85.7696 75.9914L81.1338 82.4448C81.1338 82.4448 85.5718 83.3776 86.1125 83.7971C86.1125 83.7971 85.1437 85.1362 84.864 85.5131L83.7925 86.9593L96.8696 95.7666L98.2394 93.9184L103.448 86.8883L90.792 77.5119L89.6593 79.0411C89.3895 79.4049 89.0323 79.9357 89.0323 79.9357V79.9346Z" stroke="#808080" stroke-width="0.871665" stroke-linecap="round" stroke-linejoin="round"/>
<path d="M107.528 102.994L102.294 95.9413L101.574 95.9096L100.986 95.2018L100.714 94.0417L99.2904 93.0871L98.3193 93.8943C98.3193 93.8943 98.4144 94.743 99.0621 95.5404C99.2402 95.7589 99.9458 95.5743 100.154 95.8299C100.358 96.0789 100.573 96.3422 100.799 96.6174C100.929 96.7769 100.568 97.3493 100.705 97.5153C102.974 100.274 104.667 102.285 106.719 104.296C107.331 104.896 108.329 104.211 107.528 102.994Z" stroke="#808080" stroke-width="0.871665" stroke-miterlimit="10"/>
<path d="M85.7696 75.9914C86.26 77.4464 84.3922 81.6976 81.1338 82.4448" stroke="#808080" stroke-width="0.348448" stroke-linecap="round" stroke-linejoin="round"/>
<path d="M84.1696 74.805C82.2439 73.0191 69.0608 29.2982 66.377 23.3309" stroke="#808080" stroke-width="0.871665" stroke-linecap="round" stroke-linejoin="round"/>
<path d="M55.9121 77.3511C63.4786 75.4428 77.7638 81.2648 79.1325 82.2075" stroke="#808080" stroke-width="0.871665" stroke-linecap="round" stroke-linejoin="round"/>
<path d="M21.6176 72.9874C16.1222 72.1998 5.12045 76.5407 16.4182 81.4299C27.5751 86.2579 38.247 86.8051 43.8811 84.2328C54.5235 79.3731 41.9893 76.6379 41.9893 76.6379" stroke="#808080" stroke-width="0.871665" stroke-linecap="round" stroke-linejoin="round"/>
<path d="M48.3165 80.5262C48.3165 80.5262 47.0035 99.6297 46.3329 100.502C44.43 102.975 36.7806 104.783 26.5565 102.783C11.5962 99.8569 12.1118 93.2877 12.1118 93.2877L11.4346 77.0592" stroke="#808080" stroke-width="0.871665" stroke-linecap="round" stroke-linejoin="round"/>
<path d="M27.1755 69.6314C26.507 66.6701 26.7888 55.9699 29.2749 56.7345C31.761 57.4991 32.8598 61.32 33.3372 61.0819C33.8145 60.8438 31.9893 56.0747 27.3666 51.6716C24.3573 48.8054 24.8346 51.7197 24.7396 55.1583C24.6446 58.5969 23.4026 65.2851 25.5042 68.2463C27.6058 71.2076 27.1765 69.6314 27.1765 69.6314H27.1755Z" fill="#CCCCCC"/>
<path d="M17.5204 32.8719C17.2353 30.5933 17.7487 26.5496 19.2867 25.0684C20.8247 23.5872 24.2425 28.0734 26.236 28.3082C28.2294 28.5431 25.5522 29.6256 24.8684 29.9096C24.1846 30.1936 20.2545 26.6632 20.0841 28.542C19.9137 30.4208 19.8339 34.5781 18.9306 34.5803C17.4461 34.5825 17.5215 32.8719 17.5215 32.8719H17.5204Z" fill="#CCCCCC"/>
<path d="M18.9287 24.1683C19.3318 23.9258 19.8856 24.153 20.1543 24.5386C20.423 24.9242 20.4787 25.4157 20.5115 25.8843C20.6677 28.1083 20.5137 30.3464 20.1739 32.5496" stroke="#808080" stroke-width="0.348448" stroke-linecap="round" stroke-linejoin="round"/>
<path d="M64.8773 24.7691L82.7792 75.9909L80.2221 80.2968C80.2221 80.2968 65.1755 72.3776 55.916 75.9909L64.8784 24.7691H64.8773Z" fill="url(#paint0_linear_1014_9590)"/>
</g>
<defs>
<linearGradient id="paint0_linear_1014_9590" x1="58.0296" y1="47.8825" x2="85.7121" y2="77.1084" gradientUnits="userSpaceOnUse">
<stop offset="0.39" stop-color="white" stop-opacity="0"/>
<stop offset="1" stop-color="#00FF20"/>
</linearGradient>
<clipPath id="clip0_1014_9590">
<rect width="97.2617" height="94.9525" fill="white" transform="translate(11 10)"/>
</clipPath>
</defs>
</svg>
