<svg width="30" height="29" viewBox="0 0 30 29" fill="none" xmlns="http://www.w3.org/2000/svg">
<path d="M12.3279 5.23608C13.4413 3.05433 16.5587 3.05433 17.6721 5.23608L18.6529 7.15795C19.0888 8.01211 19.9068 8.60641 20.8539 8.75703L22.9848 9.09593C25.4038 9.48066 26.3672 12.4455 24.6363 14.1787L23.1115 15.7053C22.4339 16.3839 22.1214 17.3455 22.2708 18.2927L22.607 20.424C22.9886 22.8436 20.4666 24.6759 18.2834 23.5653L16.3603 22.587C15.5055 22.1522 14.4945 22.1522 13.6397 22.587L11.7166 23.5653C9.53344 24.6759 7.01137 22.8435 7.39299 20.424L7.72916 18.2927C7.87857 17.3454 7.56613 16.3839 6.88848 15.7053L5.36375 14.1787C3.63284 12.4455 4.59619 9.48066 7.01523 9.09593L9.14612 8.75703C10.0932 8.60641 10.9112 8.01211 11.3471 7.15795L12.3279 5.23608Z" stroke="#121212" stroke-width="1.5"/>
</svg>
