<svg width="279" height="45" viewBox="0 0 279 45" fill="none" xmlns="http://www.w3.org/2000/svg">
<rect width="279" height="45" rx="6" fill="#FEE500"/>
<g clip-path="url(#clip0_846_12012)">
<path opacity="0.902" fill-rule="evenodd" clip-rule="evenodd" d="M29 14.444C24.29 14.444 20 18.23 20 21.433C20 23.833 21.558 25.95 23.931 27.208L22.933 30.874C22.844 31.199 23.213 31.457 23.496 31.27L27.873 28.365C28.242 28.401 28.618 28.422 29 28.422C33.97 28.422 38 25.293 38 21.433C38 18.23 33.97 14.444 29 14.444Z" fill="black"/>
</g>
<path d="M96.7217 15.7334C96.7124 20.4927 95.0889 24.853 89.1514 27.7754L88.335 26.6621C91.4336 25.1499 93.2983 23.2388 94.3003 21.0215L88.6504 21.5596L88.4092 20.2793L94.7456 19.8525C95.0425 18.9248 95.2095 17.9507 95.2744 16.9395H89.2441V15.7334H96.7217ZM99.4863 30.5029V14.0078H100.934V20.7246H103.605V21.9492H100.934V30.5029H99.4863ZM113.143 15.7334C113.133 20.4927 111.51 24.853 105.572 27.7754L104.756 26.6621C107.854 25.1499 109.719 23.2388 110.721 21.0215L105.071 21.5596L104.83 20.2793L111.167 19.8525C111.463 18.9248 111.63 17.9507 111.695 16.9395H105.665V15.7334H113.143ZM115.907 30.5029V14.0078H117.354V20.7246H120.026V21.9492H117.354V30.5029H115.907ZM128.524 15.084C132.031 15.1025 134.555 16.8096 134.555 19.4072C134.555 21.8657 132.365 23.4893 129.229 23.7026V27.1631H136.113V28.3877H121.01V27.1631H127.801V23.7026C124.684 23.48 122.494 21.8564 122.494 19.4072C122.494 16.8096 125.027 15.1025 128.524 15.084ZM123.904 19.4072C123.895 21.3091 125.853 22.543 128.524 22.5615C131.196 22.543 133.145 21.3091 133.145 19.4072C133.145 17.5425 131.196 16.2808 128.524 16.29C125.853 16.2808 123.895 17.5425 123.904 19.4072ZM152.534 27.2373V28.4619H137.431V27.2373H144.222V24.1201H139.323V19.0361H149.194V16.4385H139.286V15.2324H150.623V20.2236H140.771V22.9141H151.013V24.1201H145.65V27.2373H152.534ZM172.74 14.0078V30.5029H171.349V14.0078H172.74ZM158.602 25.8828C162.192 23.7583 163.992 20.7803 164.279 17.3291H159.344V16.123H165.727C165.727 16.9673 165.652 17.8022 165.504 18.6094H168.009V14.4531H169.4V29.668H168.009V23.9531H164.947V22.7471H168.009V19.8154H165.216C164.418 22.6079 162.609 25.0757 159.492 26.9404L158.602 25.8828ZM190.126 22.3018V23.5078H175.041V22.3018H181.832V19.7598H183.261V22.3018H190.126ZM175.95 19.4814C178.863 19.0825 181.813 17.2456 181.813 15.0469V14.2676H183.279V15.0469C183.279 17.2456 186.248 19.0825 189.161 19.4814L188.567 20.6504C186.072 20.2144 183.585 18.8877 182.556 16.9858C181.517 18.9062 179.04 20.2144 176.507 20.6504L175.95 19.4814ZM176.711 26.291V25.1221H188.215V30.5029H186.749V26.291H176.711ZM204.228 14.0078V20.8174H206.992V22.0234H204.228V30.5029H202.78V14.0078H204.228ZM191.369 17.8672V16.6611H195.618V14.2119H197.065V16.6611H201.185V17.8672H191.369ZM192.315 23.0254C192.306 20.7988 194.013 19.2402 196.36 19.2402C198.689 19.2402 200.387 20.7988 200.405 23.0254C200.387 25.2612 198.689 26.8105 196.36 26.8105C194.013 26.8105 192.306 25.2612 192.315 23.0254ZM193.707 23.0254C193.698 24.5283 194.82 25.5859 196.36 25.5674C197.882 25.5859 198.995 24.5283 199.014 23.0254C198.995 21.5317 197.882 20.4556 196.36 20.4648C194.82 20.4556 193.698 21.5317 193.707 23.0254ZM221.521 14.0078V30.5029H220.055V14.0078H221.521ZM208.087 26.2168C212.549 24.1016 214.832 20.938 215.156 16.9951H208.848V15.8076H216.641C216.622 20.5483 214.414 24.751 208.885 27.4043L208.087 26.2168Z" fill="black"/>
<defs>
<clipPath id="clip0_846_12012">
<rect width="18" height="18" fill="white" transform="translate(20 13.5)"/>
</clipPath>
</defs>
</svg>
