<svg width="140" height="55" viewBox="0 0 140 55" fill="none" xmlns="http://www.w3.org/2000/svg">
<path d="M10.9668 40.3213C10.9502 42.9526 12.4858 45.6504 14.7021 46.7295L13.7227 47.9912C12.104 47.1445 10.8506 45.4844 10.1948 43.5005C9.53076 45.6089 8.22754 47.3936 6.53418 48.2734L5.55469 46.9951C7.8374 45.8994 9.38135 43.0439 9.38965 40.3213V37.7812H10.9668V40.3213ZM15.8145 51.4111V36.5361H17.3916V42.4629H19.7822V43.8076H17.3916V51.4111H15.8145ZM26.0078 39.6406C26.0078 41.5664 27.4272 43.376 29.7266 44.1064L28.9131 45.335C27.2031 44.7705 25.9165 43.6001 25.2358 42.1143C24.5718 43.7329 23.2437 45.0112 21.4756 45.6338L20.6621 44.3887C22.978 43.6001 24.4058 41.6743 24.4141 39.6406V38.9932H21.0771V37.7148H29.2783V38.9932H26.0078V39.6406ZM23.1025 51.0957V46.3809H24.6963V49.8174H33.2793V51.0957H23.1025ZM31.2539 47.4102V36.5527H32.8311V47.4102H31.2539ZM41.9619 36.7852C45.3154 36.7769 47.2661 37.6816 47.2744 39.3418C47.2661 41.0103 45.3154 41.915 41.9619 41.915C38.6084 41.915 36.6411 41.0103 36.6494 39.3418C36.6411 37.6816 38.6084 36.7769 41.9619 36.7852ZM35.1885 44.0898V42.8281H48.752V44.0898H35.1885ZM36.8154 46.4141V45.2354H47.042V48.7217H38.376V50.0498H47.457V51.2617H36.832V47.5762H45.4814V46.4141H36.8154ZM38.293 39.3418C38.2847 40.2632 39.5962 40.7363 41.9619 40.7363C44.3442 40.7363 45.6558 40.2632 45.6475 39.3418C45.6558 38.4619 44.3442 37.9473 41.9619 37.9473C39.5962 37.9473 38.2847 38.4619 38.293 39.3418ZM66.582 46.1484V51.4111H65.0049V47.4102H56.2227V46.1484H66.582ZM53.8652 43.7412C55.5669 42.8198 56.2227 40.9189 56.2227 39.4248V38.8936H54.4131V37.6152H58.7461V38.8936H57.6836V39.4248C57.6836 40.5537 57.999 42.1724 59.0947 43.2847C60.1655 42.2056 60.4644 40.6201 60.4727 39.4248V38.8936H59.4434V37.6152H63.6934V38.8936H61.9834V39.4248C61.9751 40.9521 62.6143 42.853 64.3242 43.7412L63.4941 44.8701C62.3403 44.2559 61.6265 43.2183 61.2363 42.0479C60.896 43.2432 60.2402 44.3555 59.0947 45.0195C57.9492 44.3555 57.3018 43.2432 56.9531 42.0645C56.5547 43.2266 55.8491 44.2642 54.7119 44.8701L53.8652 43.7412ZM65.0049 45.4346V36.5361H66.582V45.4346H65.0049ZM80.7598 37.9639V39.4248C80.7515 41.2593 80.7515 43.3179 80.1953 46.3643L78.6016 46.1982C79.1743 43.3179 79.1743 41.2095 79.1826 39.4248V39.2422H70.1514V37.9639H80.7598ZM68.7236 49.4023V48.0908H73.8867V42.8447H75.4473V48.0908H82.2871V49.4023H68.7236ZM92.7295 46.3643C92.7295 47.6426 93.3604 48.9956 94.7134 49.8008C96.0747 48.9292 96.7471 47.5098 96.7471 46.3643V45.6504H98.291V46.3643C98.2827 47.9082 99.3037 49.4023 101.246 50.0332L100.466 51.1953C98.9966 50.689 97.9922 49.6929 97.4775 48.481C97.0044 49.6763 96.1162 50.7637 94.7549 51.3281C93.3271 50.7886 92.4224 49.7344 91.9658 48.5225C91.4263 49.6929 90.4468 50.6807 89.0439 51.1953L88.2471 50.0332C90.1562 49.3525 91.1938 47.8003 91.2021 46.3643V45.6504H92.7295V46.3643ZM87.8652 40.8857C87.8735 38.8022 89.5503 37.3745 91.833 37.3662C94.1074 37.3745 95.7842 38.8022 95.7842 40.8857C95.7842 42.9443 94.1074 44.3721 91.833 44.3721C89.5503 44.3721 87.8735 42.9443 87.8652 40.8857ZM89.4092 40.8857C89.4009 42.1807 90.4219 43.0605 91.833 43.0605C93.2275 43.0605 94.2402 42.1807 94.2402 40.8857C94.2402 39.5825 93.2275 38.7026 91.833 38.7109C90.4219 38.7026 89.4009 39.5825 89.4092 40.8857ZM98.3242 45.0195V36.5527H99.9014V45.0195H98.3242ZM106.293 37.6484C108.318 37.6567 109.788 39.3667 110.028 42.1143H113.1V36.5361H114.66V51.4443H113.1V43.3926H110.045C109.871 46.2979 108.368 48.0991 106.293 48.0908C104.077 48.0991 102.508 46.0737 102.524 42.8613C102.508 39.6821 104.077 37.6567 106.293 37.6484ZM104.019 42.8613C104.027 45.2271 104.948 46.6797 106.293 46.6797C107.638 46.6797 108.559 45.2271 108.567 42.8613C108.559 40.5288 107.638 39.0679 106.293 39.0596C104.948 39.0679 104.027 40.5288 104.019 42.8613ZM130.564 48.2402V49.5518H116.951V48.2402H120.205V44.3555C118.985 43.6831 118.238 42.6206 118.246 41.2842C118.238 38.9434 120.537 37.4077 123.725 37.3994C126.92 37.4077 129.22 38.9434 129.22 41.2842C129.22 42.5957 128.506 43.6499 127.311 44.3223V48.2402H130.564ZM119.773 41.2842C119.773 42.8779 121.392 43.9155 123.725 43.9238C126.041 43.9155 127.684 42.8779 127.692 41.2842C127.684 39.6821 126.041 38.6611 123.725 38.6611C121.392 38.6611 119.773 39.6821 119.773 41.2842ZM121.766 48.2402H125.717V44.9365C125.111 45.0776 124.438 45.1523 123.725 45.1523C123.027 45.1523 122.363 45.0776 121.766 44.9365V48.2402ZM134.383 37.9805L134.233 46.5303H132.59L132.44 37.9805H134.383ZM132.241 48.9375C132.233 48.29 132.772 47.7588 133.42 47.7588C134.059 47.7588 134.59 48.29 134.599 48.9375C134.59 49.585 134.059 50.1079 133.42 50.1162C132.772 50.1079 132.233 49.585 132.241 48.9375Z" fill="#00FF20"/>
<path d="M5.27393 11.6035C5.27393 13.9775 6.27002 16.5093 8.26221 17.7295L7.38232 18.9414C5.98779 18.103 5.0498 16.6172 4.53516 14.8989C3.99561 16.7832 2.96631 18.3936 1.52197 19.2734L0.54248 18.0947C2.64258 16.833 3.75488 14.2017 3.74658 11.6699V8.89746H5.27393V11.6035ZM6.65186 14.0771V12.7656H8.95947V7.81836H10.4536V21.6807H8.95947V14.0771H6.65186ZM12.0308 22.4111V7.53613H13.5415V22.4111H12.0308ZM20.564 9.91016C20.5557 11.8608 21.9336 13.6787 24.1499 14.4092L23.3032 15.6543C21.6763 15.0815 20.4561 13.9194 19.8086 12.4502C19.1611 14.1187 17.8994 15.4302 16.1646 16.0693L15.3179 14.8076C17.6421 13.9858 18.9868 12.002 19.0034 9.77734V8.31641H20.564V9.91016ZM17.3267 19.6221C17.3267 17.8789 19.2275 16.8579 22.3237 16.8662C25.3784 16.8579 27.2544 17.8789 27.2544 19.6221C27.2544 21.3818 25.3784 22.3862 22.3237 22.3779C19.2275 22.3862 17.3267 21.3818 17.3267 19.6221ZM18.9038 19.6221C18.8955 20.6016 20.1738 21.1328 22.3237 21.1494C24.457 21.1328 25.7188 20.6016 25.7104 19.6221C25.7188 18.6758 24.457 18.1113 22.3237 18.1113C20.1738 18.1113 18.8955 18.6758 18.9038 19.6221ZM25.5444 16.5176V7.53613H27.1216V11.2715H29.2798V12.5996H27.1216V16.5176H25.5444ZM42.9263 7.53613V22.4111H41.4155V7.53613H42.9263ZM30.2925 13.9609C30.2925 10.7402 31.5542 8.72314 33.4966 8.73145C35.3062 8.72314 36.5264 10.4414 36.709 13.2305H38.394V7.81836H39.9048V21.6807H38.394V14.5088H36.7173C36.5762 17.4141 35.3394 19.2153 33.4966 19.207C31.5542 19.2153 30.2925 17.1899 30.2925 13.9609ZM31.7534 13.9609C31.7534 16.3267 32.4258 17.7212 33.4966 17.7129C34.5923 17.7212 35.2729 16.3267 35.2729 13.9609C35.2729 11.5869 34.5923 10.2007 33.4966 10.209C32.4258 10.2007 31.7534 11.5869 31.7534 13.9609ZM52.1401 16.252V17.9785H54.4644V16.252H55.9253V22.2285H50.6626V16.252H52.1401ZM49.1851 11.6035C49.1768 9.56982 50.812 8.16699 53.0864 8.16699C55.0454 8.16699 56.5645 9.271 56.8882 10.9395H59.7935V7.53613H61.3706V15.4219H59.7935V12.2344H56.8965C56.5894 13.936 55.062 15.0649 53.0864 15.0566C50.812 15.0649 49.1768 13.6538 49.1851 11.6035ZM50.6958 11.6035C50.6875 12.8901 51.6836 13.77 53.0864 13.7783C54.4644 13.77 55.4438 12.8901 55.4438 11.6035C55.4438 10.3335 54.4644 9.47021 53.0864 9.47852C51.6836 9.47021 50.6875 10.3335 50.6958 11.6035ZM52.1401 21H54.4644V19.1738H52.1401V21ZM56.0083 21.1494C57.8013 20.4106 58.6812 18.8501 58.6812 17.3643V16.1523H60.2417V17.3643C60.2334 18.9248 61.1133 20.502 62.9478 21.1494L62.1343 22.3447C60.7896 21.8301 59.918 20.8589 59.4448 19.6802C58.9551 20.8257 58.0835 21.8135 56.8052 22.3447L56.0083 21.1494ZM71.3647 8.69824V9.99316H66.1021V14.9736C68.5923 14.9736 70.2524 14.8906 72.1616 14.5254L72.3276 15.8037C70.2524 16.1689 68.4595 16.2686 65.687 16.2686H64.5415V8.69824H71.3647ZM66.3677 22.1787V17.5469H67.9614V20.9004H76.4448V22.1787H66.3677ZM70.4351 12.8486V11.5869H74.4858V7.55273H76.063V18.3936H74.4858V12.8486H70.4351Z" fill="#00FF20"/>
<path d="M101.257 12.8379V15.0723H98.4854V24.9336H95.7354V5.42578H98.4854V12.8379H101.257ZM83.6826 20.1641V7.29492H86.4111V17.8975C88.9141 17.8545 91.5996 17.6182 94.4248 17.0488L94.7041 19.3262C91.4277 19.9922 88.2588 20.1641 85.3799 20.1641H83.6826ZM112.042 7.03711V16.4258H102.653V7.03711H112.042ZM104.909 24.6328V18.2949H107.638V22.4414H118.294V24.6328H104.909ZM105.36 14.2773H109.335V9.22852H105.36V14.2773ZM114.835 19.6914V5.42578H117.585V11.0547H120.228V13.3105H117.585V19.6914H114.835ZM127.425 6.73633C130.529 6.72559 132.828 8.72363 132.839 11.5273C132.828 14.3418 130.529 16.3291 127.425 16.3398C124.342 16.3291 121.979 14.3418 121.989 11.5273C121.979 8.72363 124.342 6.72559 127.425 6.73633ZM121.173 18.7891C124.664 18.7998 129.498 18.7568 133.677 18.166L133.892 20.1426C129.552 20.9912 124.911 21.0234 121.495 21.0234L121.173 18.7891ZM124.718 11.5273C124.707 13.0742 125.878 13.9658 127.425 13.9551C128.982 13.9658 130.164 13.0742 130.175 11.5273C130.164 10.002 128.982 9.09961 127.425 9.09961C125.878 9.09961 124.707 10.002 124.718 11.5273ZM134.794 25.0195V5.42578H137.522V25.0195H134.794Z" fill="#00FF20"/>
<circle cx="92" cy="2" r="2" fill="#00FF20"/>
<circle cx="111" cy="2" r="2" fill="#00FF20"/>
<circle cx="130" cy="2" r="2" fill="#00FF20"/>
</svg>
