<svg width="85" height="86" viewBox="0 0 85 86" fill="none" xmlns="http://www.w3.org/2000/svg">
<rect width="85" height="86" fill="white"/>
<rect x="0.5" y="0.5" width="84" height="85" stroke="#131326" stroke-opacity="0.3"/>
<path opacity="0.1" d="M25.0089 29.0366V30.3224C25.0179 31.5811 25.0179 33.0028 24.6557 34.832H26.82V36.2266H12.0597V34.832H22.9261C23.062 34.1619 23.1525 33.5552 23.2069 32.9938L13.7077 33.3832L13.4904 32.043L23.2884 31.7713C23.3065 31.3004 23.3065 30.8477 23.3065 30.413H13.907V29.0366H25.0089ZM13.744 38.907V37.5849H25.1175V41.5149H15.5007V42.9819H25.6971V44.3402H13.7802V40.229H23.4151V38.907H13.744ZM42.9205 41.1527V42.6016H28.0696V41.1527H34.6076V38.3093H29.8807V33.1477H39.407V30.8658H29.8445V29.4531H41.1094V34.5241H31.5831V36.8967H41.4897V38.3093H36.31V41.1527H42.9205ZM58.9485 41.0259V42.4386H44.0977V41.0259H58.9485ZM44.7859 36.9691C47.8013 36.4801 50.5994 34.2344 50.5994 31.7532V31.2461H45.3292V29.8516H57.6626V31.2461H52.3924V31.7532C52.3924 34.2344 55.2086 36.4258 58.2965 36.9148L57.6083 38.2731C54.9822 37.7841 52.5645 36.2628 51.505 34.1257C50.4636 36.2809 48.0639 37.8475 45.4922 38.3455L44.7859 36.9691ZM64.6172 29.0547C66.7543 29.0366 68.4114 30.2772 68.7646 32.0973H71.934V28.3121H73.6545V37.0234H71.934V33.5099H68.7736C68.4386 35.3754 66.7724 36.625 64.6172 36.625C62.136 36.625 60.3521 35.0584 60.3612 32.8217C60.3521 30.6122 62.136 29.0366 64.6172 29.0547ZM62.0092 32.8217C62.0002 34.2072 63.0868 35.1761 64.6172 35.1761C66.1204 35.1761 67.1889 34.2072 67.1889 32.8217C67.1889 31.4272 66.1204 30.4764 64.6172 30.4854C63.0868 30.4764 62.0002 31.4272 62.0092 32.8217ZM63.0778 44.3402V37.8022H64.7802V39.6857H71.934V37.8022H73.6545V44.3402H63.0778ZM64.7802 42.9276H71.934V41.044H64.7802V42.9276ZM14.405 62.0014C14.4231 58.5875 15.392 55.7532 17.0854 53.3263H18.8603C17.6106 55.1193 16.4153 58.7686 16.4153 62.0014C16.4153 65.2433 17.6106 68.8926 18.8603 70.6946H17.0854C15.392 68.2587 14.4231 65.4244 14.405 62.0014ZM33.5662 52.3121V60.5163H31.8638V57.2202H28.7035C28.3503 59.0312 26.6932 60.2447 24.5471 60.2447C22.093 60.2447 20.282 58.7143 20.291 56.5138C20.282 54.3496 22.093 52.8374 24.5471 52.8374C26.6932 52.8374 28.3413 54.0236 28.6944 55.8075H31.8638V52.3121H33.5662ZM21.9391 56.5138C21.93 57.9084 23.0257 58.832 24.5471 58.832C26.0231 58.832 27.1188 57.9084 27.1188 56.5138C27.1188 55.1736 26.0231 54.2409 24.5471 54.25C23.0257 54.2409 21.93 55.1736 21.9391 56.5138ZM22.9533 62.7077V61.3675H33.5662V65.4062H24.71V66.9638H34.1458V68.3402H22.9895V64.1204H31.8638V62.7077H22.9533ZM49.051 52.9641V54.0146C49.06 55.065 49.06 56.4233 48.725 58.1076H50.9345V59.4478H44.324V61.3675H49.0691V65.4244H39.5609V67H49.4856V68.3764H37.8404V64.2109H47.3667V62.7259H37.8223V61.3675H42.6216V59.4478H36.0836V58.1076H47.0044C47.3123 56.5229 47.3485 55.3457 47.3485 54.3406H37.949V52.9641H49.051ZM60.334 53.7429V61.3132H52.7456V53.7429H60.334ZM54.4299 59.9549H58.6497V55.1374H54.4299V59.9549ZM54.5748 68.1953V63.0518H56.2953V66.8008H65.5499V68.1953H54.5748ZM63.1412 64.1928V52.294H64.8617V57.1477H67.2161V58.5966H64.8617V64.1928H63.1412ZM72.595 62.0014C72.5769 65.4244 71.608 68.2587 69.9146 70.6946H68.1397C69.3894 68.8926 70.5847 65.2433 70.5847 62.0014C70.5847 58.7686 69.3894 55.1193 68.1397 53.3263H69.9146C71.608 55.7532 72.5769 58.5875 72.595 62.0014Z" fill="#1E1E23"/>
</svg>
