<svg width="32" height="32" viewBox="0 0 32 32" fill="none" xmlns="http://www.w3.org/2000/svg">
<path d="M26.6671 5.3335V13.3335H24.0004V9.90016L18.7004 15.1668C19.1226 15.7891 19.4449 16.4502 19.6671 17.1502C19.8893 17.8502 20.0004 18.5779 20.0004 19.3335C20.0004 21.3779 19.2893 23.1113 17.8671 24.5335C16.4449 25.9557 14.7115 26.6668 12.6671 26.6668C10.6226 26.6668 8.8893 25.9557 7.46707 24.5335C6.04485 23.1113 5.33374 21.3779 5.33374 19.3335C5.33374 17.2891 6.04485 15.5557 7.46707 14.1335C8.8893 12.7113 10.6226 12.0002 12.6671 12.0002C13.4004 12.0002 14.1226 12.1057 14.8337 12.3168C15.5449 12.5279 16.2004 12.8557 16.8004 13.3002L22.1004 8.00016H18.6671V5.3335H26.6671ZM12.6671 14.6668C11.3782 14.6668 10.2782 15.1224 9.36707 16.0335C8.45596 16.9446 8.00041 18.0446 8.00041 19.3335C8.00041 20.6224 8.45596 21.7224 9.36707 22.6335C10.2782 23.5446 11.3782 24.0002 12.6671 24.0002C13.956 24.0002 15.056 23.5446 15.9671 22.6335C16.8782 21.7224 17.3337 20.6224 17.3337 19.3335C17.3337 18.0446 16.8782 16.9446 15.9671 16.0335C15.056 15.1224 13.956 14.6668 12.6671 14.6668Z" fill="white" fill-opacity="0.4"/>
</svg>
