<svg width="85" height="86" viewBox="0 0 85 86" fill="none" xmlns="http://www.w3.org/2000/svg">
<rect width="85" height="86" fill="white"/>
<rect x="0.5" y="0.5" width="84" height="85" stroke="#131326" stroke-opacity="0.3"/>
<path opacity="0.1" d="M38.044 28.3121V44.5394H36.3235V28.3121H38.044ZM25.5657 40.4102V29.8878H27.2681V38.9251C29.6406 38.916 32.1309 38.7077 34.7298 38.1825L34.9652 39.6314C32.0946 40.22 29.4867 40.4192 26.924 40.4102H25.5657ZM55.6477 31.0107V32.4233H53.3477V34.6328H55.6477V36.0636H53.3477V39.1967H51.6271V28.3121H53.3477V31.0107H55.6477ZM40.489 36.299C43.0517 35.3935 44.5186 33.2202 44.5277 30.8114V29.2177H46.2301V30.9563C46.2301 33.0843 47.7243 35.0765 50.1783 35.8643L49.2365 37.1864C47.4707 36.5707 46.1396 35.312 45.4242 33.7273C44.7179 35.5384 43.3233 36.96 41.4308 37.6573L40.489 36.299ZM42.1009 43.1268C45.1706 42.665 47.4707 40.9716 47.4798 38.8707V38.3817H49.1822V38.8707C49.1641 40.9716 51.5004 42.665 54.5792 43.1268L53.891 44.467C51.4007 44.0504 49.318 42.8913 48.34 41.1799C47.3439 42.8913 45.2612 44.0504 42.7891 44.467L42.1009 43.1268ZM8.64116 62.0014C8.65927 58.5875 9.6282 55.7532 11.3216 53.3263H13.0964C11.8468 55.1193 10.6515 58.7686 10.6515 62.0014C10.6515 65.2433 11.8468 68.8926 13.0964 70.6946H11.3216C9.6282 68.2587 8.65927 65.4244 8.64116 62.0014ZM29.1245 61.6211V63.0156H22.4959V68.5213H20.8116V63.0156H14.2736V61.6211H29.1245ZM16.139 59.5565V53.1815H27.2591V59.5565H16.139ZM17.8233 58.2163H25.5385V54.5579H17.8233V58.2163ZM45.1525 60.4801V61.8203H30.3017V60.4801H45.1525ZM31.8049 68.2678V66.9094H34.3585V64.3739H31.9498V63.0156H43.5044V64.3739H41.1138V66.9094H43.6493V68.2678H31.8049ZM32.1671 54.0689V52.7287H43.2871V56.6225H33.9057V57.9627H43.6131V59.2848H32.2033V55.3548H41.5666V54.0689H32.1671ZM36.0609 66.9094H39.4295V64.3739H36.0609V66.9094ZM56.2001 53.0547C58.6451 53.0456 60.4109 54.413 60.4199 56.4233C60.4109 58.4155 58.6451 59.7919 56.2001 59.7738C53.7642 59.7919 52.0075 58.4155 52.0165 56.4233C52.0075 54.413 53.7642 53.0456 56.2001 53.0547ZM50.8574 61.0415C53.8548 61.0415 57.9931 60.9782 61.5428 60.4439L61.6696 61.7298C60.1845 62.0105 58.6541 62.1825 57.16 62.2821V68.0323H55.4395V62.3817C53.8638 62.4542 52.3787 62.4632 51.0929 62.4723L50.8574 61.0415ZM53.6827 56.4233C53.6646 57.6005 54.7241 58.3793 56.2001 58.3611C57.7124 58.3793 58.7718 57.6005 58.7718 56.4233C58.7718 55.237 57.7124 54.4402 56.2001 54.4492C54.7241 54.4402 53.6646 55.237 53.6827 56.4233ZM62.6657 68.5394V52.3303H64.3681V68.5394H62.6657ZM71.3588 62.0014C71.3407 65.4244 70.3718 68.2587 68.6784 70.6946H66.9036C68.1532 68.8926 69.3485 65.2433 69.3485 62.0014C69.3485 58.7686 68.1532 55.1193 66.9036 53.3263H68.6784C70.3718 55.7532 71.3407 58.5875 71.3588 62.0014Z" fill="#1E1E23"/>
</svg>
