<svg width="114" height="114" viewBox="0 0 114 114" fill="none" xmlns="http://www.w3.org/2000/svg">
<rect width="114" height="114" fill="white"/>
<rect x="0.5" y="0.5" width="113" height="113" stroke="#131326" stroke-opacity="0.3"/>
<g clip-path="url(#clip0_1014_9588)">
<path d="M41.637 38.5895C62.1065 48.6096 72.5558 54.4841 73.1997 54.3741L73.4012 60.7803C73.4012 60.7803 39.3622 96.531 39.0713 100.477L41.6381 38.5906L41.637 38.5895Z" fill="url(#paint0_linear_1014_9588)"/>
<path d="M43.9053 52.1254C44.5633 52.0022 44.9207 51.878 45.5798 51.7549C45.6702 51.7375 45.7661 51.7212 45.8533 51.7506C46.0494 51.8159 46.1039 52.0622 46.1278 52.2681C46.2869 53.6724 46.4427 55.1236 46.0363 56.4779C45.6299 57.8321 44.0632 58.926 42.6523 59.0197" fill="white"/>
<path d="M43.9053 52.1254C44.5633 52.0022 44.9207 51.878 45.5798 51.7549C45.6702 51.7375 45.7661 51.7212 45.8533 51.7506C46.0494 51.8159 46.1039 52.0622 46.1278 52.2681C46.2869 53.6724 46.4427 55.1236 46.0363 56.4779C45.6299 57.8321 44.0632 58.926 42.6523 59.0197" stroke="#808080" stroke-width="0.869416" stroke-linecap="round" stroke-linejoin="round"/>
<path d="M4.88352 56.3714C6.75527 64.0011 11.5055 67.1683 11.5055 67.1683C11.5055 67.1683 11.269 67.8372 11.7081 68.3373C12.0491 68.7252 13.095 69.3527 13.0722 69.9018C13.0449 70.5446 11.3606 70.6231 11.3235 71.4674C11.1187 76.0662 10.7788 83.0258 10.4988 85.4511C10.0673 89.1935 10.355 92.7932 13.3783 94.0886V98.2352C13.3783 98.7843 13.74 99.2658 14.2651 99.4216C14.9374 99.621 15.8809 99.8465 16.6893 99.8465L16.7819 101.243C16.8146 101.728 17.1272 102.148 17.5816 102.32C18.8072 102.782 21.4809 103.589 25.1819 103.589C30.3646 103.589 33.5318 102.006 33.6756 100.566C33.8194 99.1253 33.6756 93.2235 31.5162 91.7843C31.5162 91.7843 36.2707 88.6073 33.5318 81.5637C32.524 78.9729 27.3412 72.0623 27.3412 72.0623C32.6678 72.4937 40.1472 71.1972 41.3053 65.8718C42.0254 62.5608 39.5774 63.7124 41.3053 61.2654C43.0332 58.8184 44.9039 52.1964 42.7445 45.7183C40.5851 39.2402 35.5462 32.1868 22.4462 32.6182C9.34608 33.0508 2.56181 46.9091 4.88352 56.3714Z" fill="white" stroke="#808080" stroke-width="0.869416" stroke-linecap="round" stroke-linejoin="round"/>
<path d="M10.8668 54.5112C10.9638 55.5147 11.2372 56.5845 12.1535 57.0051C12.963 57.3766 13.9032 57.2459 14.7857 57.3635C15.6682 57.4812 16.652 58.0554 16.6411 58.9466C16.6269 60.1461 14.9698 60.5612 14.3673 61.5995C13.8128 62.5539 14.3314 63.8406 15.2128 64.5041C16.0942 65.1676 17.2305 65.3648 18.3189 65.5413C19.1306 65.6731 19.9434 65.806 20.755 65.9378C21.3771 66.0392 22.0232 66.1492 22.5418 66.5087C23.0604 66.8683 23.4123 67.5525 23.1857 68.1408C22.7107 69.3785 19.7374 69.0952 19.3616 70.3666C18.9574 71.7318 26.355 71.8004 26.428 72.2743C26.6906 73.9631 20.9239 74.2343 20.462 74.1058C19.5675 73.8552 16.6771 79.9749 16.6858 82.7999C16.6945 85.625 27.6352 89.3914 28.4294 90.3022C29.2237 91.213 29.3457 94.0402 27.5655 94.9914C25.7852 95.9425 25.4126 101.593 26.428 102.145C27.4434 102.697 25.9072 103.005 23.6967 102.759C21.4861 102.514 17.8624 101.716 17.6173 101.408C17.3722 101.101 17.6783 99.6893 17.3722 99.443C17.066 99.1968 15.1278 99.2589 14.6833 98.7065C14.2388 98.1542 14.5471 93.916 14.1168 93.5478C13.6864 93.1795 11.734 92.3199 11.5129 90.4776C11.2917 88.6353 11.8996 71.9736 12.3322 71.8298C12.7647 71.686 13.9936 71.8701 13.8095 71.3167C13.6254 70.7632 14.2747 69.2957 13.5197 68.3413C12.7647 67.3869 11.0455 66.281 9.26415 63.2719C7.48282 60.2627 5.27442 56.3013 5.39644 51.7701C5.51847 47.2389 9.5387 38.5796 14.6844 36.7372C19.8301 34.8949 24.4125 34.3425 27.341 34.3425C30.2696 34.3425 31.1227 34.592 30.7272 35.6652C29.6856 38.4902 24.9136 37.2144 22.045 38.1318C19.1764 39.0491 16.3034 40.6986 15.0777 43.4496C14.6157 44.4857 14.6266 45.7277 14.0024 46.6745C13.024 48.1573 10.7513 53.3063 10.8679 54.5134L10.8668 54.5112Z" fill="#CCCCCC"/>
<path d="M27.3055 61.7422C26.9797 61.557 25.181 60.5503 25.2899 58.0227L25.498 57.917L30.5238 58.5119C30.465 59.0697 30.6382 59.8149 30.3571 60.4653C30.1643 60.912 29.7492 61.2116 29.321 61.4426C28.9027 61.6681 27.8938 61.9002 27.3055 61.7411" fill="#00FF20"/>
<path d="M38.0558 62.4385C37.6865 62.1923 36.8824 61.0908 37.2997 59.3139L37.4882 59.2539C37.8281 59.4697 39.5539 59.8641 39.5539 59.8641C39.7162 60.496 39.6432 61.4122 39.3174 62.006C39.0701 62.457 38.8337 62.6782 38.0569 62.4385" fill="#00FF20"/>
<path d="M25.2773 57.7209C27.6056 58.3179 30.0471 58.4748 32.4331 58.1796" stroke="#00FF20" stroke-width="0.435797" stroke-miterlimit="10"/>
<path d="M37.4023 59.1442C38.6869 59.8382 40.1838 59.9907 41.6361 60.1302" stroke="#00FF20" stroke-width="0.435797" stroke-miterlimit="10"/>
<path d="M14.6826 68.3381C16.0423 69.1879 21.0267 71.3527 27.3393 71.8266" stroke="#808080" stroke-width="0.347548" stroke-linecap="round" stroke-linejoin="round"/>
<path d="M13.377 94.0884C14.1766 94.5035 15.7727 95.0003 16.1878 95.0319C16.6029 95.0635 16.6879 99.8464 16.6879 99.8464" stroke="#808080" stroke-width="0.869416" stroke-linecap="round" stroke-linejoin="round"/>
<path d="M79.7852 54.0776C78.9212 54.0874 74.8291 52.8552 74.8291 52.8552L74.9457 60.779C74.9457 60.779 79.0552 58.892 79.7384 58.9062C79.7384 58.9062 79.7569 60.5546 79.7569 61.0231V62.8175L95.4663 62.1115V51.0902H79.7569V52.9881C79.7569 53.4402 79.7852 54.0765 79.7852 54.0765V54.0776Z" stroke="#808080" stroke-width="0.869416" stroke-linecap="round" stroke-linejoin="round"/>
<path d="M108.297 61.5791L99.9151 59.034L99.3192 59.4361L98.4269 59.2182L97.5204 58.4501L95.8132 58.5307L95.5146 59.7542C95.5146 59.7542 96.0943 60.3785 97.0879 60.6323C97.3603 60.7021 97.8157 60.1344 98.1349 60.2161C98.4454 60.2946 98.7755 60.3785 99.1187 60.4645C99.317 60.5147 99.3693 61.188 99.5763 61.2403C103.033 62.1053 105.584 62.7111 108.423 63.1033C109.27 63.2199 109.663 62.0781 108.298 61.5802L108.297 61.5791Z" stroke="#808080" stroke-width="0.869416" stroke-miterlimit="10"/>
<path d="M74.8291 52.8554C76.0864 53.7302 77.1127 58.2462 74.9457 60.7793" stroke="#808080" stroke-width="0.347548" stroke-linecap="round" stroke-linejoin="round"/>
<path d="M72.8382 52.8554C70.2343 52.5667 45.4886 38.8423 39.7949 35.6534" stroke="#808080" stroke-width="0.869416" stroke-linecap="round" stroke-linejoin="round"/>
<path d="M39.7949 101.693C44.726 95.6715 71.5406 61.834 73.1977 61.7784" stroke="#808080" stroke-width="0.869416" stroke-linecap="round" stroke-linejoin="round"/>
<path d="M32.9373 56.9552C33.4865 60.0591 31.7138 62.3013 29.1568 62.1913C26.2816 62.0671 24.9176 59.9044 25.3763 56.9552C25.8208 54.0974 27.0682 51.7191 29.1568 51.7191C31.2454 51.7191 32.4329 54.1072 32.9373 56.9552Z" stroke="#808080" stroke-width="0.347548" stroke-linecap="round" stroke-linejoin="round"/>
<path d="M42.2353 58.8989C41.392 61.1149 40.7329 62.8788 39.0692 62.8025C37.1964 62.7154 36.6364 60.3708 37.7586 57.951C38.798 55.7089 40.2731 54.0125 41.4836 54.3742C43.2115 54.8906 43.0601 56.7308 42.2353 58.8989Z" stroke="#808080" stroke-width="0.250584" stroke-linecap="round" stroke-linejoin="round"/>
<path d="M29.6671 51.7704C30.4897 52.4208 31.9899 53.3207 32.478 57.4466C32.965 61.5725 30.262 61.834 29.1572 62.1903" stroke="#808080" stroke-width="0.250584" stroke-linecap="round" stroke-linejoin="round"/>
<path d="M41.4827 54.3731C42.0416 55.0464 42.8293 55.4583 42.3042 57.3333C41.779 59.2083 40.8214 62.3439 39.0684 62.8015" stroke="#808080" stroke-width="0.250584" stroke-linecap="round" stroke-linejoin="round"/>
<path d="M15.772 73.2595C15.8406 71.5424 17.5816 70.2427 21.068 74.8686C24.5544 79.4946 29.7164 86.3323 28.2413 91.1598C26.7661 95.9863 21.068 96.1203 17.8497 92.2995C14.6313 88.4786 15.5029 79.9642 15.7709 73.2606L15.772 73.2595Z" fill="white" stroke="#808080" stroke-width="0.347548" stroke-linecap="round" stroke-linejoin="round"/>
<path d="M18.5376 73.0328C19.0922 73.5372 17.8622 73.4631 17.8622 76.7174C17.8622 79.9718 20.6262 88.7542 23.6354 89.3076C26.6446 89.8611 27.0553 92.563 25.6618 93.7299C24.2684 94.8967 21.0892 94.5949 18.8503 92.3789C16.6114 90.1629 16.1429 85.8692 16.0808 84.7634C16.0187 83.6575 15.9392 72.6035 16.6855 72.3584C17.4318 72.1132 17.8622 72.4194 18.5376 73.0339V73.0328Z" fill="#CCCCCC"/>
<path d="M18.8537 49.3213C16.7619 48.3178 14.6701 47.3144 12.5793 46.311C12.1958 46.1269 11.7818 45.9384 11.3613 46.0048C10.9309 46.0735 10.5888 46.3971 10.3099 46.7326C8.93169 48.3887 8.43706 50.6058 8.2464 52.7521C8.07099 54.7284 8.2464 57.0055 9.79784 58.242C11.0627 59.2509 12.8462 59.2335 14.4532 59.0461" fill="white"/>
<path d="M18.8537 49.3213C16.7619 48.3178 14.6701 47.3144 12.5793 46.311C12.1958 46.1269 11.7818 45.9384 11.3613 46.0048C10.9309 46.0735 10.5888 46.3971 10.3099 46.7326C8.93169 48.3887 8.43706 50.6058 8.2464 52.7521C8.07099 54.7284 8.2464 57.0055 9.79784 58.242C11.0627 59.2509 12.8462 59.2335 14.4532 59.0461" stroke="#808080" stroke-width="0.869416" stroke-linecap="round" stroke-linejoin="round"/>
<path d="M10.6924 46.2966C11.0944 46.0548 11.6468 46.2814 11.9148 46.666C12.1828 47.0506 12.2384 47.5408 12.2711 48.0082C12.4269 50.2264 12.2732 52.4588 11.9344 54.6563" stroke="#808080" stroke-width="0.347548" stroke-linecap="round" stroke-linejoin="round"/>
<path d="M14.3661 61.5999C14.9685 60.5627 16.6246 60.1476 16.6398 58.947C16.6507 58.0569 15.6669 57.4816 14.7844 57.364C13.9019 57.2463 12.9617 57.3781 12.1522 57.0055C11.2359 56.585 11.2087 55.4595 10.8655 54.5117C10.5626 53.6739 8.66364 53.2293 9.31625 55.1577C9.96886 57.0862 10.8001 58.5319 12.5793 58.5646C13.7973 58.5864 14.0065 58.4535 14.548 58.6212C15.0895 58.789 15.1886 59.3153 14.8836 59.5016C14.5785 59.6879 14.3661 61.5988 14.3661 61.5988V61.5999Z" fill="#CCCCCC"/>
</g>
<defs>
<linearGradient id="paint0_linear_1014_9588" x1="39.0702" y1="69.5333" x2="73.4001" y2="69.5333" gradientUnits="userSpaceOnUse">
<stop stop-color="white" stop-opacity="0"/>
<stop offset="1" stop-color="#00FF20"/>
</linearGradient>
<clipPath id="clip0_1014_9588">
<rect width="105.629" height="71.8597" fill="white" transform="translate(4 32.165)"/>
</clipPath>
</defs>
</svg>
