<svg width="77" height="23" viewBox="0 0 77 23" fill="none" xmlns="http://www.w3.org/2000/svg">
<path d="M35.7791 17.5217C34.5403 18.1305 33.0929 18.4455 31.7094 18.3646C30.411 18.288 29.0189 17.9261 27.8951 17.2663C27.4566 17.0066 27.0394 16.6916 26.6733 16.334C26.188 15.8658 25.9241 15.2655 25.6687 14.6525C25.5112 14.2737 26.1284 14.1076 26.286 14.4822C26.7329 15.5465 27.4055 16.2787 28.423 16.8236C29.3978 17.3472 30.6068 17.6537 31.7136 17.7176C32.9524 17.7899 34.2508 17.5302 35.3746 17.0024C36.06 16.6788 37.0136 16.134 37.3925 15.3975C37.5244 15.0357 37.6308 14.5887 37.6308 14.0565V13.733C37.6308 10.387 34.8936 7.64978 31.5476 7.64978H28.3889C25.0429 7.64978 22.3057 10.387 22.3057 13.733V16.8917C22.3057 20.2377 25.0429 22.9749 28.3889 22.9749H31.5476C33.8038 22.9749 35.7748 21.7276 36.8263 19.8929C37.0306 19.4885 37.5414 18.2582 36.988 16.7682C36.5964 17.0705 36.1622 17.3217 35.7791 17.509V17.5217ZM28.4357 12.4048C28.5975 12.3112 28.772 12.3793 28.8742 12.5198C29.1424 12.8816 29.5596 13.1285 29.9768 13.2775C30.4834 13.4563 31.0112 13.5883 31.5561 13.5925C31.969 13.5925 31.969 14.2353 31.5561 14.2311C30.9303 14.2268 30.3046 14.0821 29.7213 13.8607C29.1679 13.6479 28.6826 13.3243 28.3251 12.8433C28.2229 12.7028 28.3038 12.4857 28.44 12.4048H28.4357Z" fill="#1CE718"/>
<path d="M44.9134 7.70077C40.9459 8.07538 37.9873 11.5406 37.9873 15.5251V17.8622C37.9873 20.6846 40.2946 22.9919 43.117 22.9919H46.331C46.331 22.9919 46.3566 22.9748 46.348 22.9578C45.7648 22.0596 45.2923 21.089 44.9517 20.0929C44.6367 19.1691 44.4111 18.1772 44.3856 17.1938C44.3643 16.3595 44.5133 15.5592 44.6538 14.7418C44.7261 14.3374 45.3391 14.5077 45.271 14.9121C45.1348 15.6996 44.9943 16.4659 45.0241 17.2705C45.0582 18.1687 45.2753 19.0754 45.5648 19.9226C45.9309 20.9953 46.463 22.0383 47.1271 22.9791C47.1271 22.9833 47.1398 22.9876 47.1441 22.9876H48.1743C50.9967 22.9876 53.304 20.6803 53.304 17.8579V15.325C53.304 10.868 49.4471 7.26655 44.9049 7.69651L44.9134 7.70077Z" fill="#1CE718"/>
<path d="M64.9392 14.1673C65.3394 14.2013 65.7396 14.0651 66.1227 13.9374C67.3019 13.533 68.5747 14.2609 68.8557 15.4784C68.9408 15.8403 68.9834 16.2191 68.9834 16.6065V17.8836C68.9834 20.6932 66.6846 22.992 63.875 22.992H58.7666C55.957 22.992 53.6582 20.6932 53.6582 17.8836V5.11266C53.6582 2.30305 55.957 0.00427246 58.7666 0.00427246H60.0437C62.8533 0.00427246 65.1521 2.30305 65.1521 5.11266V6.44084C66.8719 6.81545 68.1703 8.35223 68.1703 10.1827C68.1703 10.7191 68.0554 11.2257 67.851 11.6897C67.8425 11.7025 67.834 11.7067 67.8255 11.7195C67.2636 12.8391 66.0588 13.6479 64.8286 13.533C63.4919 13.4053 62.8618 12.6731 62.8576 13.4351C62.8576 13.7799 64.0793 14.0949 64.935 14.1673H64.9392Z" fill="#1CE718"/>
<path d="M73.7514 7.66406H72.585C70.7911 7.66406 69.3369 9.11828 69.3369 10.9121V19.7411C69.3369 21.535 70.7911 22.9892 72.585 22.9892H73.7514C75.5453 22.9892 76.9995 21.535 76.9995 19.7411V10.9121C76.9995 9.11828 75.5453 7.66406 73.7514 7.66406Z" fill="#1CE718"/>
<path d="M71.0397 7.31765C71.5804 7.11758 72.1593 7.01115 72.7127 6.98561C73.5301 6.9473 74.3687 7.09629 75.1477 7.39002C76.2375 6.90047 76.9995 5.80642 76.9995 4.5421V3.83544C76.9995 1.72823 75.2754 0.00415039 73.1682 0.00415039C71.061 0.00415039 69.3369 1.72823 69.3369 3.83544V4.5421C69.3369 5.75108 70.0308 6.7983 71.0397 7.31765Z" fill="#1CE718"/>
<path d="M21.5494 9.80384C21.5494 9.80384 21.5282 9.76553 21.5196 9.7485C21.4984 9.71019 21.4388 9.61228 21.4132 9.57397C21.409 9.56119 21.4005 9.55694 21.3962 9.54417C19.7998 8.32241 17.9736 7.99037 15.9856 7.99888C14.0997 8.00739 12.15 8.1649 10.4813 9.12272C9.05517 9.94007 7.84618 11.3662 7.77381 13.069C7.69719 14.8228 8.76995 16.3937 10.5451 16.6874C12.4054 16.9939 14.0869 15.9254 15.3087 14.627C15.5897 14.3248 16.0409 14.7803 15.7599 15.0782C14.2444 16.6916 11.9925 17.9219 9.7448 17.1429C8.69332 16.7768 7.92281 15.9892 7.50136 15.0314C7.49285 15.0187 7.48434 15.0144 7.47582 15.0016C6.67551 13.3627 6.34346 11.7195 6.6074 9.90601C6.87133 8.1053 7.3098 6.37271 8.26337 4.80614C8.47622 4.45707 9.02962 4.77634 8.81678 5.12967C7.94835 6.55576 7.53968 8.10105 7.27574 9.73573C7.13526 10.6084 7.12675 11.4343 7.24594 12.2388C7.60779 10.6723 8.76995 9.36537 10.1535 8.57357C12.0606 7.48378 14.3168 7.33479 16.4623 7.36459C18.1481 7.39013 19.6934 7.73495 21.0854 8.57783C21.1748 8.07551 21.2387 7.56467 21.2046 7.11343C20.9322 3.43965 17.0285 0 12.8226 0H10.1066C6.19447 0 1.32446 3.32896 0.430496 8.09679C-0.267652 11.8004 -0.0462878 13.882 0.592261 16.6491C1.36703 20.0036 5.35158 22.9877 9.23396 22.9877H12.8226C15.7982 22.9877 18.4291 21.4339 19.9531 19.1054H19.9573C19.9573 19.1054 21.0641 17.6708 21.7793 14.2439C21.8219 14.0693 21.856 13.8905 21.8857 13.7118C21.8943 13.6777 21.8985 13.6436 21.907 13.6096H21.9028C21.9283 13.3925 21.9496 13.1711 21.9496 12.9412V12.2984C21.9496 11.4045 21.9411 10.5658 21.558 9.82087V9.81236L21.5494 9.80384Z" fill="#1CE718"/>
</svg>
