<svg width="114" height="114" viewBox="0 0 114 114" fill="none" xmlns="http://www.w3.org/2000/svg">
<rect width="114" height="114" fill="white"/>
<rect x="0.5" y="0.5" width="113" height="113" stroke="#131326" stroke-opacity="0.3"/>
<g clip-path="url(#clip0_1014_9589)">
<path d="M24.4266 42.3718C25.8682 42.837 20.4101 48.6349 20.9862 53.2399C21.5622 57.845 22.3358 61.322 26.4829 60.4951C30.4492 59.7048 31.6755 60.9007 33.6304 65.3165C35.0961 68.6284 47.1152 68.6859 48.7732 68.7789C51.83 68.9514 49.1715 70.4526 47.1695 70.7934C40.3995 71.9455 40.3995 70.3721 39.9761 70.7934C39.2798 71.4866 39.629 72.74 40.3995 73.4509C41.1699 74.1618 39.0969 75.02 38.179 75.0493C37.2611 75.0786 32.1397 78.0831 32.2547 81.7692C32.3696 85.4553 41.7543 88.9167 43.4541 88.693C45.154 88.4693 43.3172 90.4242 43.4541 91.0378C43.5911 91.6515 43.703 93.5019 41.9163 93.9451C40.1297 94.3884 37.5058 97.0688 37.7849 99.19C38.064 101.311 42.6429 100.139 42.6429 100.53C42.6429 100.921 42.2519 101.703 36.3338 101.424C30.4158 101.145 30.974 99.4701 30.9176 97.9626C30.9176 97.9626 28.3009 97.9114 27.9068 97.3082C27.5127 96.705 28.0908 92.8255 27.6705 92.4586C27.2503 92.0916 24.3294 91.8982 24.8615 85.194C25.3936 78.4898 25.4386 71.6016 25.8379 71.5827C26.2373 71.5639 27.9246 70.5875 27.6141 69.4783C27.3036 68.3691 26.0156 68.2792 25.9268 67.6133C25.8379 66.9474 26.2373 67.2579 24.7277 65.6594C23.2181 64.061 19.6219 60.2756 19.3564 55.2429C19.0908 50.2103 21.3259 41.3745 24.4256 42.3739L24.4266 42.3718Z" fill="#CCCCCC"/>
<path d="M40.3683 62.0415C40.0557 61.8638 38.3297 60.8978 38.4342 58.4724L38.6339 58.371L43.4564 58.9418C43.4 59.4771 43.5662 60.1921 43.2965 60.8162C43.1114 61.2449 42.7131 61.5324 42.3023 61.754C41.9008 61.9704 40.9328 62.1931 40.3683 62.0404" fill="#00FF00"/>
<path d="M50.6797 62.7088C50.3253 62.4726 49.5537 61.4156 49.9541 59.7106L50.135 59.6531C50.4612 59.8601 52.1171 60.2385 52.1171 60.2385C52.2729 60.8448 52.2028 61.724 51.8902 62.2938C51.6529 62.7266 51.4261 62.9388 50.6807 62.7088" fill="#00FF00"/>
<path d="M38.4229 58.1825C40.6569 58.7554 42.9997 58.906 45.2891 58.6226" stroke="#00FF00" stroke-width="0.418165" stroke-miterlimit="10"/>
<path d="M50.0576 59.5478C51.2902 60.2137 52.7266 60.3601 54.1201 60.4939" stroke="#00FF00" stroke-width="0.418165" stroke-miterlimit="10"/>
<path d="M40.3967 71.943C45.5078 72.3569 52.6845 71.1129 53.7958 66.0029C54.4868 62.8259 52.1378 63.9309 53.7958 61.5829C55.4538 59.2349 57.2488 52.8809 55.1768 46.6649C53.1048 40.4489 48.2697 33.6809 35.6997 34.0949C23.1307 34.5099 16.6209 47.8065 18.8487 56.8869C20.6447 64.208 25.2027 67.247 25.2027 67.247C25.2027 67.247 24.9759 67.8889 25.3972 68.3687C25.7244 68.7409 26.728 69.343 26.706 69.8699C26.6799 70.4867 25.0637 70.562 25.0281 71.3722C24.8316 75.7848 24.5054 82.4629 24.2368 84.79C23.8228 88.381 24.0988 91.8351 26.9998 93.078V97.0569C26.9998 97.5838 27.3469 98.0458 27.8508 98.1953C28.4958 98.3867 29.4011 98.603 30.1768 98.603L30.2657 99.9433C30.297 100.408 30.5971 100.811 31.033 100.976C32.2091 101.419 34.7745 102.194 38.3258 102.194C43.2988 102.194 46.3378 100.675 46.4758 99.293C46.6138 97.911 46.4758 92.248 44.4038 90.867C44.4038 90.867 48.966 87.8186 46.3378 81.06C45.3708 78.574 40.3978 71.943 40.3978 71.943H40.3967Z" stroke="#808080" stroke-width="0.834239" stroke-linecap="round" stroke-linejoin="round"/>
<path d="M28.2568 68.3692C29.5615 69.1847 34.3443 71.2619 40.4014 71.7166" stroke="#808080" stroke-width="0.333486" stroke-linecap="round" stroke-linejoin="round"/>
<path d="M27 93.0787C27.7673 93.477 29.2989 93.9537 29.6972 93.984C30.0955 94.0143 30.177 98.6037 30.177 98.6037" stroke="#808080" stroke-width="0.834239" stroke-linecap="round" stroke-linejoin="round"/>
<path d="M29.3004 73.0915C29.3663 71.4439 31.0368 70.1968 34.3821 74.6356C37.7275 79.0744 42.6806 85.6354 41.2651 90.2676C39.8496 94.8988 34.3821 95.0274 31.294 91.3611C28.2058 87.6949 29.0422 79.525 29.2993 73.0925L29.3004 73.0915Z" fill="white" stroke="#808080" stroke-width="0.333486" stroke-linecap="round" stroke-linejoin="round"/>
<path d="M89.7341 11.4173L77.3533 20.0158L78.3924 21.5118C78.6402 21.8683 79.0113 22.3544 79.0113 22.3544C78.336 22.8342 74.4355 24.1034 74.4355 24.1034L78.8639 30.2849C78.8639 30.2849 81.0697 26.5475 81.6165 26.1858C81.6165 26.1858 82.5333 27.4748 82.7894 27.8438L83.7721 29.2583L95.7672 20.1036L94.5116 18.2951L89.7341 11.4173Z" stroke="#808080" stroke-width="0.834239" stroke-linecap="round" stroke-linejoin="round"/>
<path d="M105.588 12.6602L97.5895 15.2413L97.3396 15.8843L96.5179 16.201L95.3826 16.0913L94.0811 17.0886L94.5149 18.2166C94.5149 18.2166 95.3136 18.3912 96.2357 18.0483C96.4886 17.9542 96.5367 17.2579 96.8326 17.1471C97.1201 17.0395 97.4264 16.9245 97.7442 16.8053C97.9282 16.7363 98.338 17.2391 98.5293 17.1659C101.727 15.9554 104.069 15.0375 106.521 13.7924C107.252 13.4213 106.938 12.3058 105.589 12.6613L105.588 12.6602Z" stroke="#808080" stroke-width="0.834239" stroke-miterlimit="10"/>
<path d="M74.4355 24.1029C75.9054 24.1039 79.1859 27.1011 78.8639 30.2844" stroke="#808080" stroke-width="0.333486" stroke-linecap="round" stroke-linejoin="round"/>
<path d="M72.8649 25.1919C70.6549 26.39 56.0745 29.1164 49.8418 29.7196" stroke="#808080" stroke-width="0.834239" stroke-linecap="round" stroke-linejoin="round"/>
<path d="M58.583 98.6033C59.1737 91.1579 76.7564 32.9786 78.0308 32.0273" stroke="#808080" stroke-width="0.834239" stroke-linecap="round" stroke-linejoin="round"/>
<path d="M45.7724 57.4466C46.2993 60.4249 44.5984 62.5764 42.1448 62.4708C39.386 62.3516 38.0771 60.2765 38.5173 57.4466C38.9438 54.7044 40.1408 52.4223 42.1448 52.4223C44.1489 52.4223 45.2884 54.7138 45.7724 57.4466Z" stroke="#808080" stroke-width="0.333486" stroke-linecap="round" stroke-linejoin="round"/>
<path d="M54.6862 59.3127C53.877 61.4391 53.2445 63.1316 51.6482 63.0584C49.8511 62.9748 49.3138 60.7251 50.3906 58.4032C51.3879 56.2517 52.8034 54.624 53.9648 54.9711C55.6228 55.4666 55.4775 57.2323 54.6862 59.3127Z" stroke="#808080" stroke-width="0.240445" stroke-linecap="round" stroke-linejoin="round"/>
<path d="M42.6328 52.4722C43.4221 53.0963 44.8616 53.9599 45.33 57.9188C45.7973 61.8778 43.2036 62.1287 42.1436 62.4705" stroke="#808080" stroke-width="0.240445" stroke-linecap="round" stroke-linejoin="round"/>
<path d="M53.969 54.9702C54.5053 55.6163 55.2611 56.0114 54.7572 57.8106C54.2533 59.6098 53.3344 62.6184 51.6523 63.0575" stroke="#808080" stroke-width="0.240445" stroke-linecap="round" stroke-linejoin="round"/>
<path d="M32.2543 50.1219C30.2471 49.1591 28.24 48.1962 26.2338 47.2334C25.8658 47.0567 25.4686 46.8759 25.065 46.9397C24.6521 47.0055 24.3238 47.316 24.0562 47.638C22.7338 49.227 22.2592 51.3544 22.0762 53.4139C21.9079 55.3103 22.0762 57.4952 23.5649 58.6817C24.7786 59.6498 26.4899 59.633 28.0319 59.4532" stroke="#808080" stroke-width="0.834239" stroke-linecap="round" stroke-linejoin="round"/>
<path d="M24.4277 47.2189C24.8135 46.9868 25.3435 47.2043 25.6007 47.5733C25.8579 47.9424 25.9112 48.4128 25.9425 48.8613C26.092 50.9897 25.9446 53.1318 25.6195 55.2404" stroke="#808080" stroke-width="0.333486" stroke-linecap="round" stroke-linejoin="round"/>
<path d="M56.2911 52.8132C56.9225 52.6951 57.2654 52.5759 57.8979 52.4578C57.9847 52.441 58.0767 52.4254 58.1603 52.4536C58.3485 52.5163 58.4007 52.7526 58.4237 52.9502C58.5764 54.2977 58.7259 55.6902 58.3359 56.9896C57.946 58.2891 56.4427 59.3387 55.0889 59.4286" stroke="#808080" stroke-width="0.834239" stroke-linecap="round" stroke-linejoin="round"/>
<path d="M23.3477 51.8444C23.9456 50.798 25.0381 50.8649 25.2148 51.8444C25.3914 52.824 24.484 55.0392 25.2148 55.5504C25.9455 56.0616 26.4985 55.5504 26.8393 54.2729C27.1801 52.9954 28.926 55.8149 30.0759 55.747C31.2259 55.679 30.6718 60.8674 30.0759 61.3399C29.48 61.8124 28.949 61.6389 29.0012 60.0216C29.0535 58.4044 28.1168 58.694 26.7965 58.7619C25.4761 58.8299 23.7721 58.8299 23.0487 56.785C22.3252 54.7402 22.8354 52.7383 23.3466 51.8444H23.3477Z" fill="#CCCCCC"/>
<path d="M42.8147 49.6473C43.6709 48.1669 47.2818 50.2452 48.4589 50.5714C49.636 50.8976 53.1005 50.5494 53.6891 51.1819C54.2777 51.8144 53.9672 53.7756 52.5538 54.2324C51.1404 54.6893 50.6166 55.8664 49.5054 55.9323C48.3941 55.9981 47.4072 53.579 45.285 52.8598C43.1629 52.1406 42.1394 50.815 42.8147 49.6473Z" fill="#CCCCCC"/>
<path d="M49.8379 32.0278C53.7383 32.1815 74.4281 26.3669 74.4281 26.3669L76.6538 30.2862C76.6538 30.2862 55.6608 94.3103 56.1062 98.6049L49.8379 32.0289V32.0278Z" fill="url(#paint0_linear_1014_9589)"/>
<path d="M30.1784 79.4395C31.1549 76.9984 33.1495 87.1985 35.2037 88.6014C38.1121 90.5867 39.9405 87.9146 40.4005 88.8304C40.8605 89.7462 41.1574 91.0498 38.8752 92.4956C36.5931 93.9414 34.2179 93.0298 33.3784 92.4956C32.539 91.9614 30.0195 88.9067 29.7895 85.4715C29.5596 82.0363 29.7205 80.5852 30.1784 79.4395Z" fill="#CCCCCC"/>
</g>
<defs>
<linearGradient id="paint0_linear_1014_9589" x1="52.7316" y1="65.5573" x2="82.8635" y2="35.3522" gradientUnits="userSpaceOnUse">
<stop offset="0.39" stop-color="white" stop-opacity="0"/>
<stop offset="1" stop-color="#00FF20"/>
</linearGradient>
<clipPath id="clip0_1014_9589">
<rect width="89.3179" height="91.6115" fill="white" transform="translate(18 11)"/>
</clipPath>
</defs>
</svg>
