<svg width="29" height="29" viewBox="0 0 29 29" fill="none" xmlns="http://www.w3.org/2000/svg">
<path fill-rule="evenodd" clip-rule="evenodd" d="M13.9258 6.02197C12.2689 6.02197 10.9258 7.36512 10.9258 9.02197V9.68626H8.15625C6.4994 9.68626 5.15625 11.0294 5.15625 12.6863V20.1584C5.15625 21.8153 6.4994 23.1584 8.15625 23.1584H21.5273C23.1842 23.1584 24.5273 21.8153 24.5273 20.1584V12.6863C24.5273 11.0294 23.1842 9.68626 21.5273 9.68626H19.3086V9.02197C19.3086 7.36512 17.9654 6.02197 16.3086 6.02197H13.9258Z" fill="#1CE718"/>
<path d="M17.1 4H17.5371C18.8765 4 20.0537 4.88793 20.4217 6.17584L20.6179 6.86279C20.8441 7.6543 21.5675 8.2 22.3907 8.2V8.2C24.9364 8.2 27 10.2636 27 12.8093V20C27 22.7614 24.7614 25 22 25H8C5.23858 25 3 22.7614 3 20V16.6M12.9 4H12.4629C11.1235 4 9.94631 4.88793 9.57833 6.17584L9.41445 6.74944C9.16913 7.60805 8.38436 8.2 7.4914 8.2H6" stroke="#121212" stroke-width="2" stroke-linecap="round"/>
<path d="M11.4001 15.4C11.4001 13.4118 13.0119 11.8 15.0001 11.8C16.9883 11.8 18.6001 13.4118 18.6001 15.4C18.6001 17.3883 16.9883 19 15.0001 19C14.503 19 14.0293 18.8993 13.5986 18.717" stroke="#121212" stroke-width="2" stroke-linecap="round"/>
<path d="M1 11L5 11" stroke="#121212" stroke-width="1.5" stroke-linecap="round"/>
<path d="M3 13V9" stroke="#121212" stroke-width="1.5" stroke-linecap="round"/>
</svg>
